999
"DXF R12 Output" (www.mydxf.blogspot.com)
 0 
SECTION
 2 
HEADER
 9 
$ACADVER
 1 
AC1009
 9 
$EXTMIN
 10 
 0 
 20 
 0 
 9 
$EXTMAX
 10 
 8.5 
 20 
 11 
 0 
ENDSEC
 0 
SECTION
 2 
ENTITIES
0
POLYLINE
8
Layer 1
62
7
70
1
10
0.000000
20
0.000000
66
1
0
VERTEX
8
Layer 1
10
50.054683
20
275.240613
70
0
0
VERTEX
8
Layer 1
10
37.554987
20
250.241223
70
0
0
VERTEX
8
Layer 1
10
12.555597
20
250.241223
70
0
0
VERTEX
8
Layer 1
10
0.055902
20
275.240613
70
0
0
VERTEX
8
Layer 1
10
12.555597
20
300.240003
70
0
0
VERTEX
8
Layer 1
10
37.554987
20
300.240003
70
0
0
VERTEX
8
Layer 1
10
50.054683
20
275.240613
70
0
0
SEQEND
8
Layer 1
0
POLYLINE
8
Layer 1
62
7
70
0
10
0.000000
20
0.000000
66
1
0
VERTEX
8
Layer 1
10
25.054202
20
298.648636
70
0
0
VERTEX
8
Layer 1
10
23.912351
20
298.418076
70
0
0
VERTEX
8
Layer 1
10
22.979850
20
297.789339
70
0
0
VERTEX
8
Layer 1
10
22.351113
20
296.856839
70
0
0
VERTEX
8
Layer 1
10
22.120553
20
295.714987
70
0
0
VERTEX
8
Layer 1
10
22.351113
20
294.573315
70
0
0
VERTEX
8
Layer 1
10
22.979850
20
293.641210
70
0
0
VERTEX
8
Layer 1
10
23.912351
20
293.012870
70
0
0
VERTEX
8
Layer 1
10
25.054202
20
292.782490
70
0
0
VERTEX
8
Layer 1
10
26.196054
20
293.012870
70
0
0
VERTEX
8
Layer 1
10
27.128555
20
293.641210
70
0
0
VERTEX
8
Layer 1
10
27.757292
20
294.573315
70
0
0
VERTEX
8
Layer 1
10
27.987851
20
295.714987
70
0
0
VERTEX
8
Layer 1
10
27.757292
20
296.856839
70
0
0
VERTEX
8
Layer 1
10
27.128555
20
297.789339
70
0
0
VERTEX
8
Layer 1
10
26.196054
20
298.418076
70
0
0
VERTEX
8
Layer 1
10
25.054202
20
298.648636
70
0
0
VERTEX
8
Layer 1
10
25.054202
20
298.648636
70
0
0
SEQEND
8
Layer 1
0
POLYLINE
8
Layer 1
62
7
70
0
10
0.000000
20
0.000000
66
1
0
VERTEX
8
Layer 1
10
62.567412
20
273.638025
70
0
0
VERTEX
8
Layer 1
10
61.425559
20
273.407465
70
0
0
VERTEX
8
Layer 1
10
60.493057
20
272.778727
70
0
0
VERTEX
8
Layer 1
10
59.864319
20
271.846225
70
0
0
VERTEX
8
Layer 1
10
59.633759
20
270.704372
70
0
0
VERTEX
8
Layer 1
10
59.864319
20
269.562698
70
0
0
VERTEX
8
Layer 1
10
60.493057
20
268.630592
70
0
0
VERTEX
8
Layer 1
10
61.425559
20
268.002250
70
0
0
VERTEX
8
Layer 1
10
62.567412
20
267.771870
70
0
0
VERTEX
8
Layer 1
10
63.709265
20
268.002250
70
0
0
VERTEX
8
Layer 1
10
64.641769
20
268.630592
70
0
0
VERTEX
8
Layer 1
10
65.270507
20
269.562698
70
0
0
VERTEX
8
Layer 1
10
65.501068
20
270.704372
70
0
0
VERTEX
8
Layer 1
10
65.270507
20
271.846225
70
0
0
VERTEX
8
Layer 1
10
64.641769
20
272.778727
70
0
0
VERTEX
8
Layer 1
10
63.709265
20
273.407465
70
0
0
VERTEX
8
Layer 1
10
62.567412
20
273.638025
70
0
0
VERTEX
8
Layer 1
10
62.567412
20
273.638025
70
0
0
SEQEND
8
Layer 1
0
POLYLINE
8
Layer 1
62
7
70
0
10
0.000000
20
0.000000
66
1
0
VERTEX
8
Layer 1
10
50.054766
20
275.240559
70
0
0
VERTEX
8
Layer 1
10
75.015884
20
275.240559
70
0
0
SEQEND
8
Layer 1
0
POLYLINE
8
Layer 1
62
7
70
0
10
0.000000
20
0.000000
66
1
0
VERTEX
8
Layer 1
10
87.571450
20
300.216296
70
0
0
VERTEX
8
Layer 1
10
112.570876
20
300.216296
70
0
0
VERTEX
8
Layer 1
10
125.070591
20
275.216866
70
0
0
VERTEX
8
Layer 1
10
112.570876
20
250.217440
70
0
0
VERTEX
8
Layer 1
10
87.571450
20
250.217440
70
0
0
VERTEX
8
Layer 1
10
75.071735
20
275.216866
70
0
0
VERTEX
8
Layer 1
10
87.571450
20
300.216296
70
0
0
SEQEND
8
Layer 1
0
POLYLINE
8
Layer 1
62
7
70
0
10
0.000000
20
0.000000
66
1
0
VERTEX
8
Layer 1
10
100.070022
20
298.625025
70
0
0
VERTEX
8
Layer 1
10
98.928169
20
298.394465
70
0
0
VERTEX
8
Layer 1
10
97.995667
20
297.765727
70
0
0
VERTEX
8
Layer 1
10
97.366929
20
296.833225
70
0
0
VERTEX
8
Layer 1
10
97.136369
20
295.691372
70
0
0
VERTEX
8
Layer 1
10
97.366929
20
294.549698
70
0
0
VERTEX
8
Layer 1
10
97.995667
20
293.617592
70
0
0
VERTEX
8
Layer 1
10
98.928169
20
292.989250
70
0
0
VERTEX
8
Layer 1
10
100.070022
20
292.758870
70
0
0
VERTEX
8
Layer 1
10
101.211875
20
292.989250
70
0
0
VERTEX
8
Layer 1
10
102.144379
20
293.617592
70
0
0
VERTEX
8
Layer 1
10
102.773117
20
294.549698
70
0
0
VERTEX
8
Layer 1
10
103.003678
20
295.691372
70
0
0
VERTEX
8
Layer 1
10
102.773117
20
296.833225
70
0
0
VERTEX
8
Layer 1
10
102.144379
20
297.765727
70
0
0
VERTEX
8
Layer 1
10
101.211875
20
298.394465
70
0
0
VERTEX
8
Layer 1
10
100.070022
20
298.625025
70
0
0
VERTEX
8
Layer 1
10
100.070022
20
298.625025
70
0
0
SEQEND
8
Layer 1
0
POLYLINE
8
Layer 1
62
7
70
0
10
0.000000
20
0.000000
66
1
0
VERTEX
8
Layer 1
10
37.555043
20
250.239726
70
0
0
VERTEX
8
Layer 1
10
50.054757
20
225.240299
70
0
0
VERTEX
8
Layer 1
10
37.555043
20
200.240870
70
0
0
VERTEX
8
Layer 1
10
12.555616
20
200.240870
70
0
0
VERTEX
8
Layer 1
10
0.055902
20
225.240299
70
0
0
VERTEX
8
Layer 1
10
12.555616
20
250.239726
70
0
0
SEQEND
8
Layer 1
0
POLYLINE
8
Layer 1
62
7
70
0
10
0.000000
20
0.000000
66
1
0
VERTEX
8
Layer 1
10
25.054202
20
248.599636
70
0
0
VERTEX
8
Layer 1
10
23.912351
20
248.369076
70
0
0
VERTEX
8
Layer 1
10
22.979850
20
247.740339
70
0
0
VERTEX
8
Layer 1
10
22.351113
20
246.807839
70
0
0
VERTEX
8
Layer 1
10
22.120553
20
245.665987
70
0
0
VERTEX
8
Layer 1
10
22.351113
20
244.524315
70
0
0
VERTEX
8
Layer 1
10
22.979850
20
243.592210
70
0
0
VERTEX
8
Layer 1
10
23.912351
20
242.963870
70
0
0
VERTEX
8
Layer 1
10
25.054202
20
242.733490
70
0
0
VERTEX
8
Layer 1
10
26.196054
20
242.963870
70
0
0
VERTEX
8
Layer 1
10
27.128555
20
243.592210
70
0
0
VERTEX
8
Layer 1
10
27.757292
20
244.524315
70
0
0
VERTEX
8
Layer 1
10
27.987851
20
245.665987
70
0
0
VERTEX
8
Layer 1
10
27.757292
20
246.807839
70
0
0
VERTEX
8
Layer 1
10
27.128555
20
247.740339
70
0
0
VERTEX
8
Layer 1
10
26.196054
20
248.369076
70
0
0
VERTEX
8
Layer 1
10
25.054202
20
248.599636
70
0
0
VERTEX
8
Layer 1
10
25.054202
20
248.599636
70
0
0
SEQEND
8
Layer 1
0
POLYLINE
8
Layer 1
62
7
70
0
10
0.000000
20
0.000000
66
1
0
VERTEX
8
Layer 1
10
112.563941
20
250.239726
70
0
0
VERTEX
8
Layer 1
10
125.063656
20
225.240299
70
0
0
VERTEX
8
Layer 1
10
112.563941
20
200.240870
70
0
0
VERTEX
8
Layer 1
10
87.564514
20
200.240870
70
0
0
VERTEX
8
Layer 1
10
75.064800
20
225.240299
70
0
0
VERTEX
8
Layer 1
10
87.564514
20
250.239726
70
0
0
SEQEND
8
Layer 1
0
POLYLINE
8
Layer 1
62
7
70
0
10
0.000000
20
0.000000
66
1
0
VERTEX
8
Layer 1
10
100.062902
20
248.599636
70
0
0
VERTEX
8
Layer 1
10
98.921051
20
248.369076
70
0
0
VERTEX
8
Layer 1
10
97.988550
20
247.740339
70
0
0
VERTEX
8
Layer 1
10
97.359813
20
246.807839
70
0
0
VERTEX
8
Layer 1
10
97.129253
20
245.665987
70
0
0
VERTEX
8
Layer 1
10
97.359813
20
244.524315
70
0
0
VERTEX
8
Layer 1
10
97.988550
20
243.592210
70
0
0
VERTEX
8
Layer 1
10
98.921051
20
242.963870
70
0
0
VERTEX
8
Layer 1
10
100.062902
20
242.733490
70
0
0
VERTEX
8
Layer 1
10
101.204754
20
242.963870
70
0
0
VERTEX
8
Layer 1
10
102.137255
20
243.592210
70
0
0
VERTEX
8
Layer 1
10
102.765992
20
244.524315
70
0
0
VERTEX
8
Layer 1
10
102.996551
20
245.665987
70
0
0
VERTEX
8
Layer 1
10
102.765992
20
246.807839
70
0
0
VERTEX
8
Layer 1
10
102.137255
20
247.740339
70
0
0
VERTEX
8
Layer 1
10
101.204754
20
248.369076
70
0
0
VERTEX
8
Layer 1
10
100.062902
20
248.599636
70
0
0
VERTEX
8
Layer 1
10
100.062902
20
248.599636
70
0
0
SEQEND
8
Layer 1
0
POLYLINE
8
Layer 1
62
7
70
0
10
0.000000
20
0.000000
66
1
0
VERTEX
8
Layer 1
10
37.555043
20
200.262726
70
0
0
VERTEX
8
Layer 1
10
50.054757
20
175.263299
70
0
0
VERTEX
8
Layer 1
10
37.555043
20
150.263870
70
0
0
VERTEX
8
Layer 1
10
12.555616
20
150.263870
70
0
0
VERTEX
8
Layer 1
10
0.055902
20
175.263299
70
0
0
VERTEX
8
Layer 1
10
12.555616
20
200.262726
70
0
0
SEQEND
8
Layer 1
0
POLYLINE
8
Layer 1
62
7
70
0
10
0.000000
20
0.000000
66
1
0
VERTEX
8
Layer 1
10
25.054202
20
198.622636
70
0
0
VERTEX
8
Layer 1
10
23.912351
20
198.392076
70
0
0
VERTEX
8
Layer 1
10
22.979850
20
197.763339
70
0
0
VERTEX
8
Layer 1
10
22.351113
20
196.830839
70
0
0
VERTEX
8
Layer 1
10
22.120553
20
195.688987
70
0
0
VERTEX
8
Layer 1
10
22.351113
20
194.547315
70
0
0
VERTEX
8
Layer 1
10
22.979850
20
193.615210
70
0
0
VERTEX
8
Layer 1
10
23.912351
20
192.986870
70
0
0
VERTEX
8
Layer 1
10
25.054202
20
192.756490
70
0
0
VERTEX
8
Layer 1
10
26.196054
20
192.986870
70
0
0
VERTEX
8
Layer 1
10
27.128555
20
193.615210
70
0
0
VERTEX
8
Layer 1
10
27.757292
20
194.547315
70
0
0
VERTEX
8
Layer 1
10
27.987851
20
195.688987
70
0
0
VERTEX
8
Layer 1
10
27.757292
20
196.830839
70
0
0
VERTEX
8
Layer 1
10
27.128555
20
197.763339
70
0
0
VERTEX
8
Layer 1
10
26.196054
20
198.392076
70
0
0
VERTEX
8
Layer 1
10
25.054202
20
198.622636
70
0
0
VERTEX
8
Layer 1
10
25.054202
20
198.622636
70
0
0
SEQEND
8
Layer 1
0
POLYLINE
8
Layer 1
62
7
70
0
10
0.000000
20
0.000000
66
1
0
VERTEX
8
Layer 1
10
112.563941
20
200.262726
70
0
0
VERTEX
8
Layer 1
10
125.063656
20
175.263299
70
0
0
VERTEX
8
Layer 1
10
112.563941
20
150.263870
70
0
0
VERTEX
8
Layer 1
10
87.564514
20
150.263870
70
0
0
VERTEX
8
Layer 1
10
75.064800
20
175.263299
70
0
0
VERTEX
8
Layer 1
10
87.564514
20
200.262726
70
0
0
SEQEND
8
Layer 1
0
POLYLINE
8
Layer 1
62
7
70
0
10
0.000000
20
0.000000
66
1
0
VERTEX
8
Layer 1
10
100.062902
20
198.622636
70
0
0
VERTEX
8
Layer 1
10
98.921051
20
198.392076
70
0
0
VERTEX
8
Layer 1
10
97.988550
20
197.763339
70
0
0
VERTEX
8
Layer 1
10
97.359813
20
196.830839
70
0
0
VERTEX
8
Layer 1
10
97.129253
20
195.688987
70
0
0
VERTEX
8
Layer 1
10
97.359813
20
194.547315
70
0
0
VERTEX
8
Layer 1
10
97.988550
20
193.615210
70
0
0
VERTEX
8
Layer 1
10
98.921051
20
192.986870
70
0
0
VERTEX
8
Layer 1
10
100.062902
20
192.756490
70
0
0
VERTEX
8
Layer 1
10
101.204754
20
192.986870
70
0
0
VERTEX
8
Layer 1
10
102.137255
20
193.615210
70
0
0
VERTEX
8
Layer 1
10
102.765992
20
194.547315
70
0
0
VERTEX
8
Layer 1
10
102.996551
20
195.688987
70
0
0
VERTEX
8
Layer 1
10
102.765992
20
196.830839
70
0
0
VERTEX
8
Layer 1
10
102.137255
20
197.763339
70
0
0
VERTEX
8
Layer 1
10
101.204754
20
198.392076
70
0
0
VERTEX
8
Layer 1
10
100.062902
20
198.622636
70
0
0
VERTEX
8
Layer 1
10
100.062902
20
198.622636
70
0
0
SEQEND
8
Layer 1
0
POLYLINE
8
Layer 1
62
7
70
0
10
0.000000
20
0.000000
66
1
0
VERTEX
8
Layer 1
10
37.555043
20
150.190726
70
0
0
VERTEX
8
Layer 1
10
50.054757
20
125.191299
70
0
0
VERTEX
8
Layer 1
10
37.555043
20
100.191870
70
0
0
VERTEX
8
Layer 1
10
12.555616
20
100.191870
70
0
0
VERTEX
8
Layer 1
10
0.055902
20
125.191299
70
0
0
VERTEX
8
Layer 1
10
12.555616
20
150.190726
70
0
0
SEQEND
8
Layer 1
0
POLYLINE
8
Layer 1
62
7
70
0
10
0.000000
20
0.000000
66
1
0
VERTEX
8
Layer 1
10
25.054202
20
148.550636
70
0
0
VERTEX
8
Layer 1
10
23.912351
20
148.320076
70
0
0
VERTEX
8
Layer 1
10
22.979850
20
147.691339
70
0
0
VERTEX
8
Layer 1
10
22.351113
20
146.758839
70
0
0
VERTEX
8
Layer 1
10
22.120553
20
145.616987
70
0
0
VERTEX
8
Layer 1
10
22.351113
20
144.475315
70
0
0
VERTEX
8
Layer 1
10
22.979850
20
143.543210
70
0
0
VERTEX
8
Layer 1
10
23.912351
20
142.914870
70
0
0
VERTEX
8
Layer 1
10
25.054202
20
142.684490
70
0
0
VERTEX
8
Layer 1
10
26.196054
20
142.914870
70
0
0
VERTEX
8
Layer 1
10
27.128555
20
143.543210
70
0
0
VERTEX
8
Layer 1
10
27.757292
20
144.475315
70
0
0
VERTEX
8
Layer 1
10
27.987851
20
145.616987
70
0
0
VERTEX
8
Layer 1
10
27.757292
20
146.758839
70
0
0
VERTEX
8
Layer 1
10
27.128555
20
147.691339
70
0
0
VERTEX
8
Layer 1
10
26.196054
20
148.320076
70
0
0
VERTEX
8
Layer 1
10
25.054202
20
148.550636
70
0
0
VERTEX
8
Layer 1
10
25.054202
20
148.550636
70
0
0
SEQEND
8
Layer 1
0
POLYLINE
8
Layer 1
62
7
70
0
10
0.000000
20
0.000000
66
1
0
VERTEX
8
Layer 1
10
112.563941
20
150.190726
70
0
0
VERTEX
8
Layer 1
10
125.063656
20
125.191299
70
0
0
VERTEX
8
Layer 1
10
112.563941
20
100.191870
70
0
0
VERTEX
8
Layer 1
10
87.564514
20
100.191870
70
0
0
VERTEX
8
Layer 1
10
75.064800
20
125.191299
70
0
0
VERTEX
8
Layer 1
10
87.564514
20
150.190726
70
0
0
SEQEND
8
Layer 1
0
POLYLINE
8
Layer 1
62
7
70
0
10
0.000000
20
0.000000
66
1
0
VERTEX
8
Layer 1
10
100.062902
20
148.550636
70
0
0
VERTEX
8
Layer 1
10
98.921051
20
148.320076
70
0
0
VERTEX
8
Layer 1
10
97.988550
20
147.691339
70
0
0
VERTEX
8
Layer 1
10
97.359813
20
146.758839
70
0
0
VERTEX
8
Layer 1
10
97.129253
20
145.616987
70
0
0
VERTEX
8
Layer 1
10
97.359813
20
144.475315
70
0
0
VERTEX
8
Layer 1
10
97.988550
20
143.543210
70
0
0
VERTEX
8
Layer 1
10
98.921051
20
142.914870
70
0
0
VERTEX
8
Layer 1
10
100.062902
20
142.684490
70
0
0
VERTEX
8
Layer 1
10
101.204754
20
142.914870
70
0
0
VERTEX
8
Layer 1
10
102.137255
20
143.543210
70
0
0
VERTEX
8
Layer 1
10
102.765992
20
144.475315
70
0
0
VERTEX
8
Layer 1
10
102.996551
20
145.616987
70
0
0
VERTEX
8
Layer 1
10
102.765992
20
146.758839
70
0
0
VERTEX
8
Layer 1
10
102.137255
20
147.691339
70
0
0
VERTEX
8
Layer 1
10
101.204754
20
148.320076
70
0
0
VERTEX
8
Layer 1
10
100.062902
20
148.550636
70
0
0
VERTEX
8
Layer 1
10
100.062902
20
148.550636
70
0
0
SEQEND
8
Layer 1
0
POLYLINE
8
Layer 1
62
7
70
0
10
0.000000
20
0.000000
66
1
0
VERTEX
8
Layer 1
10
37.555043
20
100.119726
70
0
0
VERTEX
8
Layer 1
10
50.054757
20
75.120299
70
0
0
VERTEX
8
Layer 1
10
37.555043
20
50.120870
70
0
0
VERTEX
8
Layer 1
10
12.555616
20
50.120870
70
0
0
VERTEX
8
Layer 1
10
0.055902
20
75.120299
70
0
0
VERTEX
8
Layer 1
10
12.555616
20
100.119726
70
0
0
SEQEND
8
Layer 1
0
POLYLINE
8
Layer 1
62
7
70
0
10
0.000000
20
0.000000
66
1
0
VERTEX
8
Layer 1
10
25.054202
20
98.479936
70
0
0
VERTEX
8
Layer 1
10
23.912351
20
98.249376
70
0
0
VERTEX
8
Layer 1
10
22.979850
20
97.620639
70
0
0
VERTEX
8
Layer 1
10
22.351113
20
96.688139
70
0
0
VERTEX
8
Layer 1
10
22.120553
20
95.546287
70
0
0
VERTEX
8
Layer 1
10
22.351113
20
94.404615
70
0
0
VERTEX
8
Layer 1
10
22.979850
20
93.472510
70
0
0
VERTEX
8
Layer 1
10
23.912351
20
92.844170
70
0
0
VERTEX
8
Layer 1
10
25.054202
20
92.613790
70
0
0
VERTEX
8
Layer 1
10
26.196054
20
92.844170
70
0
0
VERTEX
8
Layer 1
10
27.128555
20
93.472510
70
0
0
VERTEX
8
Layer 1
10
27.757292
20
94.404615
70
0
0
VERTEX
8
Layer 1
10
27.987851
20
95.546287
70
0
0
VERTEX
8
Layer 1
10
27.757292
20
96.688139
70
0
0
VERTEX
8
Layer 1
10
27.128555
20
97.620639
70
0
0
VERTEX
8
Layer 1
10
26.196054
20
98.249376
70
0
0
VERTEX
8
Layer 1
10
25.054202
20
98.479936
70
0
0
VERTEX
8
Layer 1
10
25.054202
20
98.479936
70
0
0
SEQEND
8
Layer 1
0
POLYLINE
8
Layer 1
62
7
70
0
10
0.000000
20
0.000000
66
1
0
VERTEX
8
Layer 1
10
112.563941
20
100.119726
70
0
0
VERTEX
8
Layer 1
10
125.063656
20
75.120299
70
0
0
VERTEX
8
Layer 1
10
112.563941
20
50.120870
70
0
0
VERTEX
8
Layer 1
10
87.564514
20
50.120870
70
0
0
VERTEX
8
Layer 1
10
75.064800
20
75.120299
70
0
0
VERTEX
8
Layer 1
10
87.564514
20
100.119726
70
0
0
SEQEND
8
Layer 1
0
POLYLINE
8
Layer 1
62
7
70
0
10
0.000000
20
0.000000
66
1
0
VERTEX
8
Layer 1
10
100.062902
20
98.479936
70
0
0
VERTEX
8
Layer 1
10
98.921051
20
98.249376
70
0
0
VERTEX
8
Layer 1
10
97.988550
20
97.620639
70
0
0
VERTEX
8
Layer 1
10
97.359813
20
96.688139
70
0
0
VERTEX
8
Layer 1
10
97.129253
20
95.546287
70
0
0
VERTEX
8
Layer 1
10
97.359813
20
94.404615
70
0
0
VERTEX
8
Layer 1
10
97.988550
20
93.472510
70
0
0
VERTEX
8
Layer 1
10
98.921051
20
92.844170
70
0
0
VERTEX
8
Layer 1
10
100.062902
20
92.613790
70
0
0
VERTEX
8
Layer 1
10
101.204754
20
92.844170
70
0
0
VERTEX
8
Layer 1
10
102.137255
20
93.472510
70
0
0
VERTEX
8
Layer 1
10
102.765992
20
94.404615
70
0
0
VERTEX
8
Layer 1
10
102.996551
20
95.546287
70
0
0
VERTEX
8
Layer 1
10
102.765992
20
96.688139
70
0
0
VERTEX
8
Layer 1
10
102.137255
20
97.620639
70
0
0
VERTEX
8
Layer 1
10
101.204754
20
98.249376
70
0
0
VERTEX
8
Layer 1
10
100.062902
20
98.479936
70
0
0
VERTEX
8
Layer 1
10
100.062902
20
98.479936
70
0
0
SEQEND
8
Layer 1
0
POLYLINE
8
Layer 1
62
7
70
0
10
0.000000
20
0.000000
66
1
0
VERTEX
8
Layer 1
10
37.555043
20
50.048826
70
0
0
VERTEX
8
Layer 1
10
50.054757
20
25.049399
70
0
0
VERTEX
8
Layer 1
10
37.555043
20
0.049970
70
0
0
VERTEX
8
Layer 1
10
12.555616
20
0.049970
70
0
0
VERTEX
8
Layer 1
10
0.055902
20
25.049399
70
0
0
VERTEX
8
Layer 1
10
12.555616
20
50.048826
70
0
0
SEQEND
8
Layer 1
0
POLYLINE
8
Layer 1
62
7
70
0
10
0.000000
20
0.000000
66
1
0
VERTEX
8
Layer 1
10
25.054202
20
48.408736
70
0
0
VERTEX
8
Layer 1
10
23.912351
20
48.178176
70
0
0
VERTEX
8
Layer 1
10
22.979850
20
47.549439
70
0
0
VERTEX
8
Layer 1
10
22.351113
20
46.616939
70
0
0
VERTEX
8
Layer 1
10
22.120553
20
45.475087
70
0
0
VERTEX
8
Layer 1
10
22.351113
20
44.333415
70
0
0
VERTEX
8
Layer 1
10
22.979850
20
43.401310
70
0
0
VERTEX
8
Layer 1
10
23.912351
20
42.772970
70
0
0
VERTEX
8
Layer 1
10
25.054202
20
42.542590
70
0
0
VERTEX
8
Layer 1
10
26.196054
20
42.772970
70
0
0
VERTEX
8
Layer 1
10
27.128555
20
43.401310
70
0
0
VERTEX
8
Layer 1
10
27.757292
20
44.333415
70
0
0
VERTEX
8
Layer 1
10
27.987851
20
45.475087
70
0
0
VERTEX
8
Layer 1
10
27.757292
20
46.616939
70
0
0
VERTEX
8
Layer 1
10
27.128555
20
47.549439
70
0
0
VERTEX
8
Layer 1
10
26.196054
20
48.178176
70
0
0
VERTEX
8
Layer 1
10
25.054202
20
48.408736
70
0
0
VERTEX
8
Layer 1
10
25.054202
20
48.408736
70
0
0
SEQEND
8
Layer 1
0
POLYLINE
8
Layer 1
62
7
70
0
10
0.000000
20
0.000000
66
1
0
VERTEX
8
Layer 1
10
112.563941
20
50.048826
70
0
0
VERTEX
8
Layer 1
10
125.063656
20
25.049399
70
0
0
VERTEX
8
Layer 1
10
112.563941
20
0.049970
70
0
0
VERTEX
8
Layer 1
10
87.564514
20
0.049970
70
0
0
VERTEX
8
Layer 1
10
75.064800
20
25.049399
70
0
0
VERTEX
8
Layer 1
10
87.564514
20
50.048826
70
0
0
SEQEND
8
Layer 1
0
POLYLINE
8
Layer 1
62
7
70
0
10
0.000000
20
0.000000
66
1
0
VERTEX
8
Layer 1
10
100.062902
20
48.408736
70
0
0
VERTEX
8
Layer 1
10
98.921051
20
48.178176
70
0
0
VERTEX
8
Layer 1
10
97.988550
20
47.549439
70
0
0
VERTEX
8
Layer 1
10
97.359813
20
46.616939
70
0
0
VERTEX
8
Layer 1
10
97.129253
20
45.475087
70
0
0
VERTEX
8
Layer 1
10
97.359813
20
44.333415
70
0
0
VERTEX
8
Layer 1
10
97.988550
20
43.401310
70
0
0
VERTEX
8
Layer 1
10
98.921051
20
42.772970
70
0
0
VERTEX
8
Layer 1
10
100.062902
20
42.542590
70
0
0
VERTEX
8
Layer 1
10
101.204754
20
42.772970
70
0
0
VERTEX
8
Layer 1
10
102.137255
20
43.401310
70
0
0
VERTEX
8
Layer 1
10
102.765992
20
44.333415
70
0
0
VERTEX
8
Layer 1
10
102.996551
20
45.475087
70
0
0
VERTEX
8
Layer 1
10
102.765992
20
46.616939
70
0
0
VERTEX
8
Layer 1
10
102.137255
20
47.549439
70
0
0
VERTEX
8
Layer 1
10
101.204754
20
48.178176
70
0
0
VERTEX
8
Layer 1
10
100.062902
20
48.408736
70
0
0
VERTEX
8
Layer 1
10
100.062902
20
48.408736
70
0
0
SEQEND
8
Layer 1
0
POLYLINE
8
Layer 1
62
7
70
0
10
0.000000
20
0.000000
66
1
0
VERTEX
8
Layer 1
10
62.567412
20
223.574025
70
0
0
VERTEX
8
Layer 1
10
61.425559
20
223.343465
70
0
0
VERTEX
8
Layer 1
10
60.493057
20
222.714727
70
0
0
VERTEX
8
Layer 1
10
59.864319
20
221.782225
70
0
0
VERTEX
8
Layer 1
10
59.633759
20
220.640372
70
0
0
VERTEX
8
Layer 1
10
59.864319
20
219.498698
70
0
0
VERTEX
8
Layer 1
10
60.493057
20
218.566592
70
0
0
VERTEX
8
Layer 1
10
61.425559
20
217.938250
70
0
0
VERTEX
8
Layer 1
10
62.567412
20
217.707870
70
0
0
VERTEX
8
Layer 1
10
63.709265
20
217.938250
70
0
0
VERTEX
8
Layer 1
10
64.641769
20
218.566592
70
0
0
VERTEX
8
Layer 1
10
65.270507
20
219.498698
70
0
0
VERTEX
8
Layer 1
10
65.501068
20
220.640372
70
0
0
VERTEX
8
Layer 1
10
65.270507
20
221.782225
70
0
0
VERTEX
8
Layer 1
10
64.641769
20
222.714727
70
0
0
VERTEX
8
Layer 1
10
63.709265
20
223.343465
70
0
0
VERTEX
8
Layer 1
10
62.567412
20
223.574025
70
0
0
VERTEX
8
Layer 1
10
62.567412
20
223.574025
70
0
0
SEQEND
8
Layer 1
0
POLYLINE
8
Layer 1
62
7
70
0
10
0.000000
20
0.000000
66
1
0
VERTEX
8
Layer 1
10
50.054766
20
225.175559
70
0
0
VERTEX
8
Layer 1
10
75.015884
20
225.175559
70
0
0
SEQEND
8
Layer 1
0
POLYLINE
8
Layer 1
62
7
70
0
10
0.000000
20
0.000000
66
1
0
VERTEX
8
Layer 1
10
62.567412
20
173.597025
70
0
0
VERTEX
8
Layer 1
10
61.425559
20
173.366465
70
0
0
VERTEX
8
Layer 1
10
60.493057
20
172.737727
70
0
0
VERTEX
8
Layer 1
10
59.864319
20
171.805225
70
0
0
VERTEX
8
Layer 1
10
59.633759
20
170.663372
70
0
0
VERTEX
8
Layer 1
10
59.864319
20
169.521698
70
0
0
VERTEX
8
Layer 1
10
60.493057
20
168.589592
70
0
0
VERTEX
8
Layer 1
10
61.425559
20
167.961250
70
0
0
VERTEX
8
Layer 1
10
62.567412
20
167.730870
70
0
0
VERTEX
8
Layer 1
10
63.709265
20
167.961250
70
0
0
VERTEX
8
Layer 1
10
64.641769
20
168.589592
70
0
0
VERTEX
8
Layer 1
10
65.270507
20
169.521698
70
0
0
VERTEX
8
Layer 1
10
65.501068
20
170.663372
70
0
0
VERTEX
8
Layer 1
10
65.270507
20
171.805225
70
0
0
VERTEX
8
Layer 1
10
64.641769
20
172.737727
70
0
0
VERTEX
8
Layer 1
10
63.709265
20
173.366465
70
0
0
VERTEX
8
Layer 1
10
62.567412
20
173.597025
70
0
0
VERTEX
8
Layer 1
10
62.567412
20
173.597025
70
0
0
SEQEND
8
Layer 1
0
POLYLINE
8
Layer 1
62
7
70
0
10
0.000000
20
0.000000
66
1
0
VERTEX
8
Layer 1
10
50.054766
20
175.198559
70
0
0
VERTEX
8
Layer 1
10
75.015884
20
175.198559
70
0
0
SEQEND
8
Layer 1
0
POLYLINE
8
Layer 1
62
7
70
0
10
0.000000
20
0.000000
66
1
0
VERTEX
8
Layer 1
10
62.567412
20
123.526025
70
0
0
VERTEX
8
Layer 1
10
61.425559
20
123.295465
70
0
0
VERTEX
8
Layer 1
10
60.493057
20
122.666727
70
0
0
VERTEX
8
Layer 1
10
59.864319
20
121.734225
70
0
0
VERTEX
8
Layer 1
10
59.633759
20
120.592372
70
0
0
VERTEX
8
Layer 1
10
59.864319
20
119.450698
70
0
0
VERTEX
8
Layer 1
10
60.493057
20
118.518592
70
0
0
VERTEX
8
Layer 1
10
61.425559
20
117.890250
70
0
0
VERTEX
8
Layer 1
10
62.567412
20
117.659870
70
0
0
VERTEX
8
Layer 1
10
63.709265
20
117.890250
70
0
0
VERTEX
8
Layer 1
10
64.641769
20
118.518592
70
0
0
VERTEX
8
Layer 1
10
65.270507
20
119.450698
70
0
0
VERTEX
8
Layer 1
10
65.501068
20
120.592372
70
0
0
VERTEX
8
Layer 1
10
65.270507
20
121.734225
70
0
0
VERTEX
8
Layer 1
10
64.641769
20
122.666727
70
0
0
VERTEX
8
Layer 1
10
63.709265
20
123.295465
70
0
0
VERTEX
8
Layer 1
10
62.567412
20
123.526025
70
0
0
VERTEX
8
Layer 1
10
62.567412
20
123.526025
70
0
0
SEQEND
8
Layer 1
0
POLYLINE
8
Layer 1
62
7
70
0
10
0.000000
20
0.000000
66
1
0
VERTEX
8
Layer 1
10
50.054766
20
125.127559
70
0
0
VERTEX
8
Layer 1
10
75.015884
20
125.127559
70
0
0
SEQEND
8
Layer 1
0
POLYLINE
8
Layer 1
62
7
70
0
10
0.000000
20
0.000000
66
1
0
VERTEX
8
Layer 1
10
62.567412
20
73.454025
70
0
0
VERTEX
8
Layer 1
10
61.425559
20
73.223465
70
0
0
VERTEX
8
Layer 1
10
60.493057
20
72.594727
70
0
0
VERTEX
8
Layer 1
10
59.864319
20
71.662225
70
0
0
VERTEX
8
Layer 1
10
59.633759
20
70.520372
70
0
0
VERTEX
8
Layer 1
10
59.864319
20
69.378698
70
0
0
VERTEX
8
Layer 1
10
60.493057
20
68.446592
70
0
0
VERTEX
8
Layer 1
10
61.425559
20
67.818250
70
0
0
VERTEX
8
Layer 1
10
62.567412
20
67.587870
70
0
0
VERTEX
8
Layer 1
10
63.709265
20
67.818250
70
0
0
VERTEX
8
Layer 1
10
64.641769
20
68.446592
70
0
0
VERTEX
8
Layer 1
10
65.270507
20
69.378698
70
0
0
VERTEX
8
Layer 1
10
65.501068
20
70.520372
70
0
0
VERTEX
8
Layer 1
10
65.270507
20
71.662225
70
0
0
VERTEX
8
Layer 1
10
64.641769
20
72.594727
70
0
0
VERTEX
8
Layer 1
10
63.709265
20
73.223465
70
0
0
VERTEX
8
Layer 1
10
62.567412
20
73.454025
70
0
0
VERTEX
8
Layer 1
10
62.567412
20
73.454025
70
0
0
SEQEND
8
Layer 1
0
POLYLINE
8
Layer 1
62
7
70
0
10
0.000000
20
0.000000
66
1
0
VERTEX
8
Layer 1
10
50.054766
20
75.056559
70
0
0
VERTEX
8
Layer 1
10
75.015884
20
75.056559
70
0
0
SEQEND
8
Layer 1
0
POLYLINE
8
Layer 1
62
7
70
0
10
0.000000
20
0.000000
66
1
0
VERTEX
8
Layer 1
10
62.567412
20
23.383325
70
0
0
VERTEX
8
Layer 1
10
61.425559
20
23.152765
70
0
0
VERTEX
8
Layer 1
10
60.493057
20
22.524027
70
0
0
VERTEX
8
Layer 1
10
59.864319
20
21.591525
70
0
0
VERTEX
8
Layer 1
10
59.633759
20
20.449672
70
0
0
VERTEX
8
Layer 1
10
59.864319
20
19.307998
70
0
0
VERTEX
8
Layer 1
10
60.493057
20
18.375892
70
0
0
VERTEX
8
Layer 1
10
61.425559
20
17.747550
70
0
0
VERTEX
8
Layer 1
10
62.567412
20
17.517170
70
0
0
VERTEX
8
Layer 1
10
63.709265
20
17.747550
70
0
0
VERTEX
8
Layer 1
10
64.641769
20
18.375892
70
0
0
VERTEX
8
Layer 1
10
65.270507
20
19.307998
70
0
0
VERTEX
8
Layer 1
10
65.501068
20
20.449672
70
0
0
VERTEX
8
Layer 1
10
65.270507
20
21.591525
70
0
0
VERTEX
8
Layer 1
10
64.641769
20
22.524027
70
0
0
VERTEX
8
Layer 1
10
63.709265
20
23.152765
70
0
0
VERTEX
8
Layer 1
10
62.567412
20
23.383325
70
0
0
VERTEX
8
Layer 1
10
62.567412
20
23.383325
70
0
0
SEQEND
8
Layer 1
0
POLYLINE
8
Layer 1
62
7
70
0
10
0.000000
20
0.000000
66
1
0
VERTEX
8
Layer 1
10
50.054766
20
24.985459
70
0
0
VERTEX
8
Layer 1
10
75.015884
20
24.985459
70
0
0
SEQEND
8
Layer 1
0
POLYLINE
8
Layer 1
62
7
70
0
10
0.000000
20
0.000000
66
1
0
VERTEX
8
Layer 1
10
137.639022
20
273.638025
70
0
0
VERTEX
8
Layer 1
10
136.497169
20
273.407465
70
0
0
VERTEX
8
Layer 1
10
135.564667
20
272.778727
70
0
0
VERTEX
8
Layer 1
10
134.935929
20
271.846225
70
0
0
VERTEX
8
Layer 1
10
134.705369
20
270.704372
70
0
0
VERTEX
8
Layer 1
10
134.935929
20
269.562698
70
0
0
VERTEX
8
Layer 1
10
135.564667
20
268.630592
70
0
0
VERTEX
8
Layer 1
10
136.497169
20
268.002250
70
0
0
VERTEX
8
Layer 1
10
137.639022
20
267.771870
70
0
0
VERTEX
8
Layer 1
10
138.780875
20
268.002250
70
0
0
VERTEX
8
Layer 1
10
139.713379
20
268.630592
70
0
0
VERTEX
8
Layer 1
10
140.342117
20
269.562698
70
0
0
VERTEX
8
Layer 1
10
140.572678
20
270.704372
70
0
0
VERTEX
8
Layer 1
10
140.342117
20
271.846225
70
0
0
VERTEX
8
Layer 1
10
139.713379
20
272.778727
70
0
0
VERTEX
8
Layer 1
10
138.780875
20
273.407465
70
0
0
VERTEX
8
Layer 1
10
137.639022
20
273.638025
70
0
0
VERTEX
8
Layer 1
10
137.639022
20
273.638025
70
0
0
SEQEND
8
Layer 1
0
POLYLINE
8
Layer 1
62
7
70
0
10
0.000000
20
0.000000
66
1
0
VERTEX
8
Layer 1
10
125.126480
20
275.240559
70
0
0
VERTEX
8
Layer 1
10
150.087598
20
275.240559
70
0
0
SEQEND
8
Layer 1
0
POLYLINE
8
Layer 1
62
7
70
0
10
0.000000
20
0.000000
66
1
0
VERTEX
8
Layer 1
10
162.643350
20
300.216296
70
0
0
VERTEX
8
Layer 1
10
187.642776
20
300.216296
70
0
0
VERTEX
8
Layer 1
10
200.142491
20
275.216866
70
0
0
VERTEX
8
Layer 1
10
187.642776
20
250.217440
70
0
0
VERTEX
8
Layer 1
10
162.643350
20
250.217440
70
0
0
VERTEX
8
Layer 1
10
150.143635
20
275.216866
70
0
0
VERTEX
8
Layer 1
10
162.643350
20
300.216296
70
0
0
SEQEND
8
Layer 1
0
POLYLINE
8
Layer 1
62
7
70
0
10
0.000000
20
0.000000
66
1
0
VERTEX
8
Layer 1
10
175.141922
20
298.625025
70
0
0
VERTEX
8
Layer 1
10
174.000069
20
298.394465
70
0
0
VERTEX
8
Layer 1
10
173.067567
20
297.765727
70
0
0
VERTEX
8
Layer 1
10
172.438829
20
296.833225
70
0
0
VERTEX
8
Layer 1
10
172.208269
20
295.691372
70
0
0
VERTEX
8
Layer 1
10
172.438829
20
294.549698
70
0
0
VERTEX
8
Layer 1
10
173.067567
20
293.617592
70
0
0
VERTEX
8
Layer 1
10
174.000069
20
292.989250
70
0
0
VERTEX
8
Layer 1
10
175.141922
20
292.758870
70
0
0
VERTEX
8
Layer 1
10
176.283775
20
292.989250
70
0
0
VERTEX
8
Layer 1
10
177.216279
20
293.617592
70
0
0
VERTEX
8
Layer 1
10
177.845017
20
294.549698
70
0
0
VERTEX
8
Layer 1
10
178.075578
20
295.691372
70
0
0
VERTEX
8
Layer 1
10
177.845017
20
296.833225
70
0
0
VERTEX
8
Layer 1
10
177.216279
20
297.765727
70
0
0
VERTEX
8
Layer 1
10
176.283775
20
298.394465
70
0
0
VERTEX
8
Layer 1
10
175.141922
20
298.625025
70
0
0
VERTEX
8
Layer 1
10
175.141922
20
298.625025
70
0
0
SEQEND
8
Layer 1
0
POLYLINE
8
Layer 1
62
7
70
0
10
0.000000
20
0.000000
66
1
0
VERTEX
8
Layer 1
10
187.635141
20
250.239726
70
0
0
VERTEX
8
Layer 1
10
200.134856
20
225.240299
70
0
0
VERTEX
8
Layer 1
10
187.635141
20
200.240870
70
0
0
VERTEX
8
Layer 1
10
162.635714
20
200.240870
70
0
0
VERTEX
8
Layer 1
10
150.136000
20
225.240299
70
0
0
VERTEX
8
Layer 1
10
162.635714
20
250.239726
70
0
0
SEQEND
8
Layer 1
0
POLYLINE
8
Layer 1
62
7
70
0
10
0.000000
20
0.000000
66
1
0
VERTEX
8
Layer 1
10
175.134302
20
248.599636
70
0
0
VERTEX
8
Layer 1
10
173.992451
20
248.369076
70
0
0
VERTEX
8
Layer 1
10
173.059950
20
247.740339
70
0
0
VERTEX
8
Layer 1
10
172.431213
20
246.807839
70
0
0
VERTEX
8
Layer 1
10
172.200653
20
245.665987
70
0
0
VERTEX
8
Layer 1
10
172.431213
20
244.524315
70
0
0
VERTEX
8
Layer 1
10
173.059950
20
243.592210
70
0
0
VERTEX
8
Layer 1
10
173.992451
20
242.963870
70
0
0
VERTEX
8
Layer 1
10
175.134302
20
242.733490
70
0
0
VERTEX
8
Layer 1
10
176.276154
20
242.963870
70
0
0
VERTEX
8
Layer 1
10
177.208655
20
243.592210
70
0
0
VERTEX
8
Layer 1
10
177.837392
20
244.524315
70
0
0
VERTEX
8
Layer 1
10
178.067951
20
245.665987
70
0
0
VERTEX
8
Layer 1
10
177.837392
20
246.807839
70
0
0
VERTEX
8
Layer 1
10
177.208655
20
247.740339
70
0
0
VERTEX
8
Layer 1
10
176.276154
20
248.369076
70
0
0
VERTEX
8
Layer 1
10
175.134302
20
248.599636
70
0
0
VERTEX
8
Layer 1
10
175.134302
20
248.599636
70
0
0
SEQEND
8
Layer 1
0
POLYLINE
8
Layer 1
62
7
70
0
10
0.000000
20
0.000000
66
1
0
VERTEX
8
Layer 1
10
187.635141
20
200.262726
70
0
0
VERTEX
8
Layer 1
10
200.134856
20
175.263299
70
0
0
VERTEX
8
Layer 1
10
187.635141
20
150.263870
70
0
0
VERTEX
8
Layer 1
10
162.635714
20
150.263870
70
0
0
VERTEX
8
Layer 1
10
150.136000
20
175.263299
70
0
0
VERTEX
8
Layer 1
10
162.635714
20
200.262726
70
0
0
SEQEND
8
Layer 1
0
POLYLINE
8
Layer 1
62
7
70
0
10
0.000000
20
0.000000
66
1
0
VERTEX
8
Layer 1
10
175.134302
20
198.622636
70
0
0
VERTEX
8
Layer 1
10
173.992451
20
198.392076
70
0
0
VERTEX
8
Layer 1
10
173.059950
20
197.763339
70
0
0
VERTEX
8
Layer 1
10
172.431213
20
196.830839
70
0
0
VERTEX
8
Layer 1
10
172.200653
20
195.688987
70
0
0
VERTEX
8
Layer 1
10
172.431213
20
194.547315
70
0
0
VERTEX
8
Layer 1
10
173.059950
20
193.615210
70
0
0
VERTEX
8
Layer 1
10
173.992451
20
192.986870
70
0
0
VERTEX
8
Layer 1
10
175.134302
20
192.756490
70
0
0
VERTEX
8
Layer 1
10
176.276154
20
192.986870
70
0
0
VERTEX
8
Layer 1
10
177.208655
20
193.615210
70
0
0
VERTEX
8
Layer 1
10
177.837392
20
194.547315
70
0
0
VERTEX
8
Layer 1
10
178.067951
20
195.688987
70
0
0
VERTEX
8
Layer 1
10
177.837392
20
196.830839
70
0
0
VERTEX
8
Layer 1
10
177.208655
20
197.763339
70
0
0
VERTEX
8
Layer 1
10
176.276154
20
198.392076
70
0
0
VERTEX
8
Layer 1
10
175.134302
20
198.622636
70
0
0
VERTEX
8
Layer 1
10
175.134302
20
198.622636
70
0
0
SEQEND
8
Layer 1
0
POLYLINE
8
Layer 1
62
7
70
0
10
0.000000
20
0.000000
66
1
0
VERTEX
8
Layer 1
10
187.635141
20
150.190726
70
0
0
VERTEX
8
Layer 1
10
200.134856
20
125.191299
70
0
0
VERTEX
8
Layer 1
10
187.635141
20
100.191870
70
0
0
VERTEX
8
Layer 1
10
162.635714
20
100.191870
70
0
0
VERTEX
8
Layer 1
10
150.136000
20
125.191299
70
0
0
VERTEX
8
Layer 1
10
162.635714
20
150.190726
70
0
0
SEQEND
8
Layer 1
0
POLYLINE
8
Layer 1
62
7
70
0
10
0.000000
20
0.000000
66
1
0
VERTEX
8
Layer 1
10
175.134302
20
148.550636
70
0
0
VERTEX
8
Layer 1
10
173.992451
20
148.320076
70
0
0
VERTEX
8
Layer 1
10
173.059950
20
147.691339
70
0
0
VERTEX
8
Layer 1
10
172.431213
20
146.758839
70
0
0
VERTEX
8
Layer 1
10
172.200653
20
145.616987
70
0
0
VERTEX
8
Layer 1
10
172.431213
20
144.475315
70
0
0
VERTEX
8
Layer 1
10
173.059950
20
143.543210
70
0
0
VERTEX
8
Layer 1
10
173.992451
20
142.914870
70
0
0
VERTEX
8
Layer 1
10
175.134302
20
142.684490
70
0
0
VERTEX
8
Layer 1
10
176.276154
20
142.914870
70
0
0
VERTEX
8
Layer 1
10
177.208655
20
143.543210
70
0
0
VERTEX
8
Layer 1
10
177.837392
20
144.475315
70
0
0
VERTEX
8
Layer 1
10
178.067951
20
145.616987
70
0
0
VERTEX
8
Layer 1
10
177.837392
20
146.758839
70
0
0
VERTEX
8
Layer 1
10
177.208655
20
147.691339
70
0
0
VERTEX
8
Layer 1
10
176.276154
20
148.320076
70
0
0
VERTEX
8
Layer 1
10
175.134302
20
148.550636
70
0
0
VERTEX
8
Layer 1
10
175.134302
20
148.550636
70
0
0
SEQEND
8
Layer 1
0
POLYLINE
8
Layer 1
62
7
70
0
10
0.000000
20
0.000000
66
1
0
VERTEX
8
Layer 1
10
187.635141
20
100.119726
70
0
0
VERTEX
8
Layer 1
10
200.134856
20
75.120299
70
0
0
VERTEX
8
Layer 1
10
187.635141
20
50.120870
70
0
0
VERTEX
8
Layer 1
10
162.635714
20
50.120870
70
0
0
VERTEX
8
Layer 1
10
150.136000
20
75.120299
70
0
0
VERTEX
8
Layer 1
10
162.635714
20
100.119726
70
0
0
SEQEND
8
Layer 1
0
POLYLINE
8
Layer 1
62
7
70
0
10
0.000000
20
0.000000
66
1
0
VERTEX
8
Layer 1
10
175.134302
20
98.479936
70
0
0
VERTEX
8
Layer 1
10
173.992451
20
98.249376
70
0
0
VERTEX
8
Layer 1
10
173.059950
20
97.620639
70
0
0
VERTEX
8
Layer 1
10
172.431213
20
96.688139
70
0
0
VERTEX
8
Layer 1
10
172.200653
20
95.546287
70
0
0
VERTEX
8
Layer 1
10
172.431213
20
94.404615
70
0
0
VERTEX
8
Layer 1
10
173.059950
20
93.472510
70
0
0
VERTEX
8
Layer 1
10
173.992451
20
92.844170
70
0
0
VERTEX
8
Layer 1
10
175.134302
20
92.613790
70
0
0
VERTEX
8
Layer 1
10
176.276154
20
92.844170
70
0
0
VERTEX
8
Layer 1
10
177.208655
20
93.472510
70
0
0
VERTEX
8
Layer 1
10
177.837392
20
94.404615
70
0
0
VERTEX
8
Layer 1
10
178.067951
20
95.546287
70
0
0
VERTEX
8
Layer 1
10
177.837392
20
96.688139
70
0
0
VERTEX
8
Layer 1
10
177.208655
20
97.620639
70
0
0
VERTEX
8
Layer 1
10
176.276154
20
98.249376
70
0
0
VERTEX
8
Layer 1
10
175.134302
20
98.479936
70
0
0
VERTEX
8
Layer 1
10
175.134302
20
98.479936
70
0
0
SEQEND
8
Layer 1
0
POLYLINE
8
Layer 1
62
7
70
0
10
0.000000
20
0.000000
66
1
0
VERTEX
8
Layer 1
10
187.635141
20
50.048826
70
0
0
VERTEX
8
Layer 1
10
200.134856
20
25.049399
70
0
0
VERTEX
8
Layer 1
10
187.635141
20
0.049970
70
0
0
VERTEX
8
Layer 1
10
162.635714
20
0.049970
70
0
0
VERTEX
8
Layer 1
10
150.136000
20
25.049399
70
0
0
VERTEX
8
Layer 1
10
162.635714
20
50.048826
70
0
0
SEQEND
8
Layer 1
0
POLYLINE
8
Layer 1
62
7
70
0
10
0.000000
20
0.000000
66
1
0
VERTEX
8
Layer 1
10
175.134302
20
48.408736
70
0
0
VERTEX
8
Layer 1
10
173.992451
20
48.178176
70
0
0
VERTEX
8
Layer 1
10
173.059950
20
47.549439
70
0
0
VERTEX
8
Layer 1
10
172.431213
20
46.616939
70
0
0
VERTEX
8
Layer 1
10
172.200653
20
45.475087
70
0
0
VERTEX
8
Layer 1
10
172.431213
20
44.333415
70
0
0
VERTEX
8
Layer 1
10
173.059950
20
43.401310
70
0
0
VERTEX
8
Layer 1
10
173.992451
20
42.772970
70
0
0
VERTEX
8
Layer 1
10
175.134302
20
42.542590
70
0
0
VERTEX
8
Layer 1
10
176.276154
20
42.772970
70
0
0
VERTEX
8
Layer 1
10
177.208655
20
43.401310
70
0
0
VERTEX
8
Layer 1
10
177.837392
20
44.333415
70
0
0
VERTEX
8
Layer 1
10
178.067951
20
45.475087
70
0
0
VERTEX
8
Layer 1
10
177.837392
20
46.616939
70
0
0
VERTEX
8
Layer 1
10
177.208655
20
47.549439
70
0
0
VERTEX
8
Layer 1
10
176.276154
20
48.178176
70
0
0
VERTEX
8
Layer 1
10
175.134302
20
48.408736
70
0
0
VERTEX
8
Layer 1
10
175.134302
20
48.408736
70
0
0
SEQEND
8
Layer 1
0
POLYLINE
8
Layer 1
62
7
70
0
10
0.000000
20
0.000000
66
1
0
VERTEX
8
Layer 1
10
137.639022
20
223.574025
70
0
0
VERTEX
8
Layer 1
10
136.497169
20
223.343465
70
0
0
VERTEX
8
Layer 1
10
135.564667
20
222.714727
70
0
0
VERTEX
8
Layer 1
10
134.935929
20
221.782225
70
0
0
VERTEX
8
Layer 1
10
134.705369
20
220.640372
70
0
0
VERTEX
8
Layer 1
10
134.935929
20
219.498698
70
0
0
VERTEX
8
Layer 1
10
135.564667
20
218.566592
70
0
0
VERTEX
8
Layer 1
10
136.497169
20
217.938250
70
0
0
VERTEX
8
Layer 1
10
137.639022
20
217.707870
70
0
0
VERTEX
8
Layer 1
10
138.780875
20
217.938250
70
0
0
VERTEX
8
Layer 1
10
139.713379
20
218.566592
70
0
0
VERTEX
8
Layer 1
10
140.342117
20
219.498698
70
0
0
VERTEX
8
Layer 1
10
140.572678
20
220.640372
70
0
0
VERTEX
8
Layer 1
10
140.342117
20
221.782225
70
0
0
VERTEX
8
Layer 1
10
139.713379
20
222.714727
70
0
0
VERTEX
8
Layer 1
10
138.780875
20
223.343465
70
0
0
VERTEX
8
Layer 1
10
137.639022
20
223.574025
70
0
0
VERTEX
8
Layer 1
10
137.639022
20
223.574025
70
0
0
SEQEND
8
Layer 1
0
POLYLINE
8
Layer 1
62
7
70
0
10
0.000000
20
0.000000
66
1
0
VERTEX
8
Layer 1
10
125.126480
20
225.175559
70
0
0
VERTEX
8
Layer 1
10
150.087598
20
225.175559
70
0
0
SEQEND
8
Layer 1
0
POLYLINE
8
Layer 1
62
7
70
0
10
0.000000
20
0.000000
66
1
0
VERTEX
8
Layer 1
10
137.639022
20
173.597025
70
0
0
VERTEX
8
Layer 1
10
136.497169
20
173.366465
70
0
0
VERTEX
8
Layer 1
10
135.564667
20
172.737727
70
0
0
VERTEX
8
Layer 1
10
134.935929
20
171.805225
70
0
0
VERTEX
8
Layer 1
10
134.705369
20
170.663372
70
0
0
VERTEX
8
Layer 1
10
134.935929
20
169.521698
70
0
0
VERTEX
8
Layer 1
10
135.564667
20
168.589592
70
0
0
VERTEX
8
Layer 1
10
136.497169
20
167.961250
70
0
0
VERTEX
8
Layer 1
10
137.639022
20
167.730870
70
0
0
VERTEX
8
Layer 1
10
138.780875
20
167.961250
70
0
0
VERTEX
8
Layer 1
10
139.713379
20
168.589592
70
0
0
VERTEX
8
Layer 1
10
140.342117
20
169.521698
70
0
0
VERTEX
8
Layer 1
10
140.572678
20
170.663372
70
0
0
VERTEX
8
Layer 1
10
140.342117
20
171.805225
70
0
0
VERTEX
8
Layer 1
10
139.713379
20
172.737727
70
0
0
VERTEX
8
Layer 1
10
138.780875
20
173.366465
70
0
0
VERTEX
8
Layer 1
10
137.639022
20
173.597025
70
0
0
VERTEX
8
Layer 1
10
137.639022
20
173.597025
70
0
0
SEQEND
8
Layer 1
0
POLYLINE
8
Layer 1
62
7
70
0
10
0.000000
20
0.000000
66
1
0
VERTEX
8
Layer 1
10
125.126480
20
175.198559
70
0
0
VERTEX
8
Layer 1
10
150.087598
20
175.198559
70
0
0
SEQEND
8
Layer 1
0
POLYLINE
8
Layer 1
62
7
70
0
10
0.000000
20
0.000000
66
1
0
VERTEX
8
Layer 1
10
137.639022
20
123.526025
70
0
0
VERTEX
8
Layer 1
10
136.497169
20
123.295465
70
0
0
VERTEX
8
Layer 1
10
135.564667
20
122.666727
70
0
0
VERTEX
8
Layer 1
10
134.935929
20
121.734225
70
0
0
VERTEX
8
Layer 1
10
134.705369
20
120.592372
70
0
0
VERTEX
8
Layer 1
10
134.935929
20
119.450698
70
0
0
VERTEX
8
Layer 1
10
135.564667
20
118.518592
70
0
0
VERTEX
8
Layer 1
10
136.497169
20
117.890250
70
0
0
VERTEX
8
Layer 1
10
137.639022
20
117.659870
70
0
0
VERTEX
8
Layer 1
10
138.780875
20
117.890250
70
0
0
VERTEX
8
Layer 1
10
139.713379
20
118.518592
70
0
0
VERTEX
8
Layer 1
10
140.342117
20
119.450698
70
0
0
VERTEX
8
Layer 1
10
140.572678
20
120.592372
70
0
0
VERTEX
8
Layer 1
10
140.342117
20
121.734225
70
0
0
VERTEX
8
Layer 1
10
139.713379
20
122.666727
70
0
0
VERTEX
8
Layer 1
10
138.780875
20
123.295465
70
0
0
VERTEX
8
Layer 1
10
137.639022
20
123.526025
70
0
0
VERTEX
8
Layer 1
10
137.639022
20
123.526025
70
0
0
SEQEND
8
Layer 1
0
POLYLINE
8
Layer 1
62
7
70
0
10
0.000000
20
0.000000
66
1
0
VERTEX
8
Layer 1
10
125.126480
20
125.127559
70
0
0
VERTEX
8
Layer 1
10
150.087598
20
125.127559
70
0
0
SEQEND
8
Layer 1
0
POLYLINE
8
Layer 1
62
7
70
0
10
0.000000
20
0.000000
66
1
0
VERTEX
8
Layer 1
10
137.639022
20
73.454025
70
0
0
VERTEX
8
Layer 1
10
136.497169
20
73.223465
70
0
0
VERTEX
8
Layer 1
10
135.564667
20
72.594727
70
0
0
VERTEX
8
Layer 1
10
134.935929
20
71.662225
70
0
0
VERTEX
8
Layer 1
10
134.705369
20
70.520372
70
0
0
VERTEX
8
Layer 1
10
134.935929
20
69.378698
70
0
0
VERTEX
8
Layer 1
10
135.564667
20
68.446592
70
0
0
VERTEX
8
Layer 1
10
136.497169
20
67.818250
70
0
0
VERTEX
8
Layer 1
10
137.639022
20
67.587870
70
0
0
VERTEX
8
Layer 1
10
138.780875
20
67.818250
70
0
0
VERTEX
8
Layer 1
10
139.713379
20
68.446592
70
0
0
VERTEX
8
Layer 1
10
140.342117
20
69.378698
70
0
0
VERTEX
8
Layer 1
10
140.572678
20
70.520372
70
0
0
VERTEX
8
Layer 1
10
140.342117
20
71.662225
70
0
0
VERTEX
8
Layer 1
10
139.713379
20
72.594727
70
0
0
VERTEX
8
Layer 1
10
138.780875
20
73.223465
70
0
0
VERTEX
8
Layer 1
10
137.639022
20
73.454025
70
0
0
VERTEX
8
Layer 1
10
137.639022
20
73.454025
70
0
0
SEQEND
8
Layer 1
0
POLYLINE
8
Layer 1
62
7
70
0
10
0.000000
20
0.000000
66
1
0
VERTEX
8
Layer 1
10
125.126480
20
75.056559
70
0
0
VERTEX
8
Layer 1
10
150.087598
20
75.056559
70
0
0
SEQEND
8
Layer 1
0
POLYLINE
8
Layer 1
62
7
70
0
10
0.000000
20
0.000000
66
1
0
VERTEX
8
Layer 1
10
137.639022
20
23.383325
70
0
0
VERTEX
8
Layer 1
10
136.497169
20
23.152765
70
0
0
VERTEX
8
Layer 1
10
135.564667
20
22.524027
70
0
0
VERTEX
8
Layer 1
10
134.935929
20
21.591525
70
0
0
VERTEX
8
Layer 1
10
134.705369
20
20.449672
70
0
0
VERTEX
8
Layer 1
10
134.935929
20
19.307998
70
0
0
VERTEX
8
Layer 1
10
135.564667
20
18.375892
70
0
0
VERTEX
8
Layer 1
10
136.497169
20
17.747550
70
0
0
VERTEX
8
Layer 1
10
137.639022
20
17.517170
70
0
0
VERTEX
8
Layer 1
10
138.780875
20
17.747550
70
0
0
VERTEX
8
Layer 1
10
139.713379
20
18.375892
70
0
0
VERTEX
8
Layer 1
10
140.342117
20
19.307998
70
0
0
VERTEX
8
Layer 1
10
140.572678
20
20.449672
70
0
0
VERTEX
8
Layer 1
10
140.342117
20
21.591525
70
0
0
VERTEX
8
Layer 1
10
139.713379
20
22.524027
70
0
0
VERTEX
8
Layer 1
10
138.780875
20
23.152765
70
0
0
VERTEX
8
Layer 1
10
137.639022
20
23.383325
70
0
0
VERTEX
8
Layer 1
10
137.639022
20
23.383325
70
0
0
SEQEND
8
Layer 1
0
POLYLINE
8
Layer 1
62
7
70
0
10
0.000000
20
0.000000
66
1
0
VERTEX
8
Layer 1
10
125.126480
20
24.985459
70
0
0
VERTEX
8
Layer 1
10
150.087598
20
24.985459
70
0
0
SEQEND
8
Layer 1
0
POLYLINE
8
Layer 1
62
7
70
0
10
0.000000
20
0.000000
66
1
0
VERTEX
8
Layer 1
10
212.708922
20
273.638025
70
0
0
VERTEX
8
Layer 1
10
211.567069
20
273.407465
70
0
0
VERTEX
8
Layer 1
10
210.634567
20
272.778727
70
0
0
VERTEX
8
Layer 1
10
210.005829
20
271.846225
70
0
0
VERTEX
8
Layer 1
10
209.775269
20
270.704372
70
0
0
VERTEX
8
Layer 1
10
210.005829
20
269.562698
70
0
0
VERTEX
8
Layer 1
10
210.634567
20
268.630592
70
0
0
VERTEX
8
Layer 1
10
211.567069
20
268.002250
70
0
0
VERTEX
8
Layer 1
10
212.708922
20
267.771870
70
0
0
VERTEX
8
Layer 1
10
213.850775
20
268.002250
70
0
0
VERTEX
8
Layer 1
10
214.783279
20
268.630592
70
0
0
VERTEX
8
Layer 1
10
215.412017
20
269.562698
70
0
0
VERTEX
8
Layer 1
10
215.642578
20
270.704372
70
0
0
VERTEX
8
Layer 1
10
215.412017
20
271.846225
70
0
0
VERTEX
8
Layer 1
10
214.783279
20
272.778727
70
0
0
VERTEX
8
Layer 1
10
213.850775
20
273.407465
70
0
0
VERTEX
8
Layer 1
10
212.708922
20
273.638025
70
0
0
VERTEX
8
Layer 1
10
212.708922
20
273.638025
70
0
0
SEQEND
8
Layer 1
0
POLYLINE
8
Layer 1
62
7
70
0
10
0.000000
20
0.000000
66
1
0
VERTEX
8
Layer 1
10
200.195880
20
275.240559
70
0
0
VERTEX
8
Layer 1
10
225.156998
20
275.240559
70
0
0
SEQEND
8
Layer 1
0
POLYLINE
8
Layer 1
62
7
70
0
10
0.000000
20
0.000000
66
1
0
VERTEX
8
Layer 1
10
237.712350
20
300.216296
70
0
0
VERTEX
8
Layer 1
10
262.711776
20
300.216296
70
0
0
VERTEX
8
Layer 1
10
275.211491
20
275.216866
70
0
0
VERTEX
8
Layer 1
10
262.711776
20
250.217440
70
0
0
VERTEX
8
Layer 1
10
237.712350
20
250.217440
70
0
0
VERTEX
8
Layer 1
10
225.212635
20
275.216866
70
0
0
VERTEX
8
Layer 1
10
237.712350
20
300.216296
70
0
0
SEQEND
8
Layer 1
0
POLYLINE
8
Layer 1
62
7
70
0
10
0.000000
20
0.000000
66
1
0
VERTEX
8
Layer 1
10
250.210922
20
298.625025
70
0
0
VERTEX
8
Layer 1
10
249.069069
20
298.394465
70
0
0
VERTEX
8
Layer 1
10
248.136567
20
297.765727
70
0
0
VERTEX
8
Layer 1
10
247.507829
20
296.833225
70
0
0
VERTEX
8
Layer 1
10
247.277269
20
295.691372
70
0
0
VERTEX
8
Layer 1
10
247.507829
20
294.549698
70
0
0
VERTEX
8
Layer 1
10
248.136567
20
293.617592
70
0
0
VERTEX
8
Layer 1
10
249.069069
20
292.989250
70
0
0
VERTEX
8
Layer 1
10
250.210922
20
292.758870
70
0
0
VERTEX
8
Layer 1
10
251.352775
20
292.989250
70
0
0
VERTEX
8
Layer 1
10
252.285279
20
293.617592
70
0
0
VERTEX
8
Layer 1
10
252.914017
20
294.549698
70
0
0
VERTEX
8
Layer 1
10
253.144578
20
295.691372
70
0
0
VERTEX
8
Layer 1
10
252.914017
20
296.833225
70
0
0
VERTEX
8
Layer 1
10
252.285279
20
297.765727
70
0
0
VERTEX
8
Layer 1
10
251.352775
20
298.394465
70
0
0
VERTEX
8
Layer 1
10
250.210922
20
298.625025
70
0
0
VERTEX
8
Layer 1
10
250.210922
20
298.625025
70
0
0
SEQEND
8
Layer 1
0
POLYLINE
8
Layer 1
62
7
70
0
10
0.000000
20
0.000000
66
1
0
VERTEX
8
Layer 1
10
262.705141
20
250.239726
70
0
0
VERTEX
8
Layer 1
10
275.204856
20
225.240299
70
0
0
VERTEX
8
Layer 1
10
262.705141
20
200.240870
70
0
0
VERTEX
8
Layer 1
10
237.705714
20
200.240870
70
0
0
VERTEX
8
Layer 1
10
225.206000
20
225.240299
70
0
0
VERTEX
8
Layer 1
10
237.705714
20
250.239726
70
0
0
SEQEND
8
Layer 1
0
POLYLINE
8
Layer 1
62
7
70
0
10
0.000000
20
0.000000
66
1
0
VERTEX
8
Layer 1
10
250.204302
20
248.599636
70
0
0
VERTEX
8
Layer 1
10
249.062451
20
248.369076
70
0
0
VERTEX
8
Layer 1
10
248.129950
20
247.740339
70
0
0
VERTEX
8
Layer 1
10
247.501213
20
246.807839
70
0
0
VERTEX
8
Layer 1
10
247.270653
20
245.665987
70
0
0
VERTEX
8
Layer 1
10
247.501213
20
244.524315
70
0
0
VERTEX
8
Layer 1
10
248.129950
20
243.592210
70
0
0
VERTEX
8
Layer 1
10
249.062451
20
242.963870
70
0
0
VERTEX
8
Layer 1
10
250.204302
20
242.733490
70
0
0
VERTEX
8
Layer 1
10
251.346154
20
242.963870
70
0
0
VERTEX
8
Layer 1
10
252.278655
20
243.592210
70
0
0
VERTEX
8
Layer 1
10
252.907392
20
244.524315
70
0
0
VERTEX
8
Layer 1
10
253.137951
20
245.665987
70
0
0
VERTEX
8
Layer 1
10
252.907392
20
246.807839
70
0
0
VERTEX
8
Layer 1
10
252.278655
20
247.740339
70
0
0
VERTEX
8
Layer 1
10
251.346154
20
248.369076
70
0
0
VERTEX
8
Layer 1
10
250.204302
20
248.599636
70
0
0
VERTEX
8
Layer 1
10
250.204302
20
248.599636
70
0
0
SEQEND
8
Layer 1
0
POLYLINE
8
Layer 1
62
7
70
0
10
0.000000
20
0.000000
66
1
0
VERTEX
8
Layer 1
10
262.705141
20
200.262726
70
0
0
VERTEX
8
Layer 1
10
275.204856
20
175.263299
70
0
0
VERTEX
8
Layer 1
10
262.705141
20
150.263870
70
0
0
VERTEX
8
Layer 1
10
237.705714
20
150.263870
70
0
0
VERTEX
8
Layer 1
10
225.206000
20
175.263299
70
0
0
VERTEX
8
Layer 1
10
237.705714
20
200.262726
70
0
0
SEQEND
8
Layer 1
0
POLYLINE
8
Layer 1
62
7
70
0
10
0.000000
20
0.000000
66
1
0
VERTEX
8
Layer 1
10
250.204302
20
198.622636
70
0
0
VERTEX
8
Layer 1
10
249.062451
20
198.392076
70
0
0
VERTEX
8
Layer 1
10
248.129950
20
197.763339
70
0
0
VERTEX
8
Layer 1
10
247.501213
20
196.830839
70
0
0
VERTEX
8
Layer 1
10
247.270653
20
195.688987
70
0
0
VERTEX
8
Layer 1
10
247.501213
20
194.547315
70
0
0
VERTEX
8
Layer 1
10
248.129950
20
193.615210
70
0
0
VERTEX
8
Layer 1
10
249.062451
20
192.986870
70
0
0
VERTEX
8
Layer 1
10
250.204302
20
192.756490
70
0
0
VERTEX
8
Layer 1
10
251.346154
20
192.986870
70
0
0
VERTEX
8
Layer 1
10
252.278655
20
193.615210
70
0
0
VERTEX
8
Layer 1
10
252.907392
20
194.547315
70
0
0
VERTEX
8
Layer 1
10
253.137951
20
195.688987
70
0
0
VERTEX
8
Layer 1
10
252.907392
20
196.830839
70
0
0
VERTEX
8
Layer 1
10
252.278655
20
197.763339
70
0
0
VERTEX
8
Layer 1
10
251.346154
20
198.392076
70
0
0
VERTEX
8
Layer 1
10
250.204302
20
198.622636
70
0
0
VERTEX
8
Layer 1
10
250.204302
20
198.622636
70
0
0
SEQEND
8
Layer 1
0
POLYLINE
8
Layer 1
62
7
70
0
10
0.000000
20
0.000000
66
1
0
VERTEX
8
Layer 1
10
262.705141
20
150.190726
70
0
0
VERTEX
8
Layer 1
10
275.204856
20
125.191299
70
0
0
VERTEX
8
Layer 1
10
262.705141
20
100.191870
70
0
0
VERTEX
8
Layer 1
10
237.705714
20
100.191870
70
0
0
VERTEX
8
Layer 1
10
225.206000
20
125.191299
70
0
0
VERTEX
8
Layer 1
10
237.705714
20
150.190726
70
0
0
SEQEND
8
Layer 1
0
POLYLINE
8
Layer 1
62
7
70
0
10
0.000000
20
0.000000
66
1
0
VERTEX
8
Layer 1
10
250.204302
20
148.550636
70
0
0
VERTEX
8
Layer 1
10
249.062451
20
148.320076
70
0
0
VERTEX
8
Layer 1
10
248.129950
20
147.691339
70
0
0
VERTEX
8
Layer 1
10
247.501213
20
146.758839
70
0
0
VERTEX
8
Layer 1
10
247.270653
20
145.616987
70
0
0
VERTEX
8
Layer 1
10
247.501213
20
144.475315
70
0
0
VERTEX
8
Layer 1
10
248.129950
20
143.543210
70
0
0
VERTEX
8
Layer 1
10
249.062451
20
142.914870
70
0
0
VERTEX
8
Layer 1
10
250.204302
20
142.684490
70
0
0
VERTEX
8
Layer 1
10
251.346154
20
142.914870
70
0
0
VERTEX
8
Layer 1
10
252.278655
20
143.543210
70
0
0
VERTEX
8
Layer 1
10
252.907392
20
144.475315
70
0
0
VERTEX
8
Layer 1
10
253.137951
20
145.616987
70
0
0
VERTEX
8
Layer 1
10
252.907392
20
146.758839
70
0
0
VERTEX
8
Layer 1
10
252.278655
20
147.691339
70
0
0
VERTEX
8
Layer 1
10
251.346154
20
148.320076
70
0
0
VERTEX
8
Layer 1
10
250.204302
20
148.550636
70
0
0
VERTEX
8
Layer 1
10
250.204302
20
148.550636
70
0
0
SEQEND
8
Layer 1
0
POLYLINE
8
Layer 1
62
7
70
0
10
0.000000
20
0.000000
66
1
0
VERTEX
8
Layer 1
10
262.705141
20
100.119726
70
0
0
VERTEX
8
Layer 1
10
275.204856
20
75.120299
70
0
0
VERTEX
8
Layer 1
10
262.705141
20
50.120870
70
0
0
VERTEX
8
Layer 1
10
237.705714
20
50.120870
70
0
0
VERTEX
8
Layer 1
10
225.206000
20
75.120299
70
0
0
VERTEX
8
Layer 1
10
237.705714
20
100.119726
70
0
0
SEQEND
8
Layer 1
0
POLYLINE
8
Layer 1
62
7
70
0
10
0.000000
20
0.000000
66
1
0
VERTEX
8
Layer 1
10
250.204302
20
98.479936
70
0
0
VERTEX
8
Layer 1
10
249.062451
20
98.249376
70
0
0
VERTEX
8
Layer 1
10
248.129950
20
97.620639
70
0
0
VERTEX
8
Layer 1
10
247.501213
20
96.688139
70
0
0
VERTEX
8
Layer 1
10
247.270653
20
95.546287
70
0
0
VERTEX
8
Layer 1
10
247.501213
20
94.404615
70
0
0
VERTEX
8
Layer 1
10
248.129950
20
93.472510
70
0
0
VERTEX
8
Layer 1
10
249.062451
20
92.844170
70
0
0
VERTEX
8
Layer 1
10
250.204302
20
92.613790
70
0
0
VERTEX
8
Layer 1
10
251.346154
20
92.844170
70
0
0
VERTEX
8
Layer 1
10
252.278655
20
93.472510
70
0
0
VERTEX
8
Layer 1
10
252.907392
20
94.404615
70
0
0
VERTEX
8
Layer 1
10
253.137951
20
95.546287
70
0
0
VERTEX
8
Layer 1
10
252.907392
20
96.688139
70
0
0
VERTEX
8
Layer 1
10
252.278655
20
97.620639
70
0
0
VERTEX
8
Layer 1
10
251.346154
20
98.249376
70
0
0
VERTEX
8
Layer 1
10
250.204302
20
98.479936
70
0
0
VERTEX
8
Layer 1
10
250.204302
20
98.479936
70
0
0
SEQEND
8
Layer 1
0
POLYLINE
8
Layer 1
62
7
70
0
10
0.000000
20
0.000000
66
1
0
VERTEX
8
Layer 1
10
262.705141
20
50.048826
70
0
0
VERTEX
8
Layer 1
10
275.204856
20
25.049399
70
0
0
VERTEX
8
Layer 1
10
262.705141
20
0.049970
70
0
0
VERTEX
8
Layer 1
10
237.705714
20
0.049970
70
0
0
VERTEX
8
Layer 1
10
225.206000
20
25.049399
70
0
0
VERTEX
8
Layer 1
10
237.705714
20
50.048826
70
0
0
SEQEND
8
Layer 1
0
POLYLINE
8
Layer 1
62
7
70
0
10
0.000000
20
0.000000
66
1
0
VERTEX
8
Layer 1
10
250.204302
20
48.408736
70
0
0
VERTEX
8
Layer 1
10
249.062451
20
48.178176
70
0
0
VERTEX
8
Layer 1
10
248.129950
20
47.549439
70
0
0
VERTEX
8
Layer 1
10
247.501213
20
46.616939
70
0
0
VERTEX
8
Layer 1
10
247.270653
20
45.475087
70
0
0
VERTEX
8
Layer 1
10
247.501213
20
44.333415
70
0
0
VERTEX
8
Layer 1
10
248.129950
20
43.401310
70
0
0
VERTEX
8
Layer 1
10
249.062451
20
42.772970
70
0
0
VERTEX
8
Layer 1
10
250.204302
20
42.542590
70
0
0
VERTEX
8
Layer 1
10
251.346154
20
42.772970
70
0
0
VERTEX
8
Layer 1
10
252.278655
20
43.401310
70
0
0
VERTEX
8
Layer 1
10
252.907392
20
44.333415
70
0
0
VERTEX
8
Layer 1
10
253.137951
20
45.475087
70
0
0
VERTEX
8
Layer 1
10
252.907392
20
46.616939
70
0
0
VERTEX
8
Layer 1
10
252.278655
20
47.549439
70
0
0
VERTEX
8
Layer 1
10
251.346154
20
48.178176
70
0
0
VERTEX
8
Layer 1
10
250.204302
20
48.408736
70
0
0
VERTEX
8
Layer 1
10
250.204302
20
48.408736
70
0
0
SEQEND
8
Layer 1
0
POLYLINE
8
Layer 1
62
7
70
0
10
0.000000
20
0.000000
66
1
0
VERTEX
8
Layer 1
10
212.708922
20
223.574025
70
0
0
VERTEX
8
Layer 1
10
211.567069
20
223.343465
70
0
0
VERTEX
8
Layer 1
10
210.634567
20
222.714727
70
0
0
VERTEX
8
Layer 1
10
210.005829
20
221.782225
70
0
0
VERTEX
8
Layer 1
10
209.775269
20
220.640372
70
0
0
VERTEX
8
Layer 1
10
210.005829
20
219.498698
70
0
0
VERTEX
8
Layer 1
10
210.634567
20
218.566592
70
0
0
VERTEX
8
Layer 1
10
211.567069
20
217.938250
70
0
0
VERTEX
8
Layer 1
10
212.708922
20
217.707870
70
0
0
VERTEX
8
Layer 1
10
213.850775
20
217.938250
70
0
0
VERTEX
8
Layer 1
10
214.783279
20
218.566592
70
0
0
VERTEX
8
Layer 1
10
215.412017
20
219.498698
70
0
0
VERTEX
8
Layer 1
10
215.642578
20
220.640372
70
0
0
VERTEX
8
Layer 1
10
215.412017
20
221.782225
70
0
0
VERTEX
8
Layer 1
10
214.783279
20
222.714727
70
0
0
VERTEX
8
Layer 1
10
213.850775
20
223.343465
70
0
0
VERTEX
8
Layer 1
10
212.708922
20
223.574025
70
0
0
VERTEX
8
Layer 1
10
212.708922
20
223.574025
70
0
0
SEQEND
8
Layer 1
0
POLYLINE
8
Layer 1
62
7
70
0
10
0.000000
20
0.000000
66
1
0
VERTEX
8
Layer 1
10
200.195880
20
225.175559
70
0
0
VERTEX
8
Layer 1
10
225.156998
20
225.175559
70
0
0
SEQEND
8
Layer 1
0
POLYLINE
8
Layer 1
62
7
70
0
10
0.000000
20
0.000000
66
1
0
VERTEX
8
Layer 1
10
212.708922
20
173.597025
70
0
0
VERTEX
8
Layer 1
10
211.567069
20
173.366465
70
0
0
VERTEX
8
Layer 1
10
210.634567
20
172.737727
70
0
0
VERTEX
8
Layer 1
10
210.005829
20
171.805225
70
0
0
VERTEX
8
Layer 1
10
209.775269
20
170.663372
70
0
0
VERTEX
8
Layer 1
10
210.005829
20
169.521698
70
0
0
VERTEX
8
Layer 1
10
210.634567
20
168.589592
70
0
0
VERTEX
8
Layer 1
10
211.567069
20
167.961250
70
0
0
VERTEX
8
Layer 1
10
212.708922
20
167.730870
70
0
0
VERTEX
8
Layer 1
10
213.850775
20
167.961250
70
0
0
VERTEX
8
Layer 1
10
214.783279
20
168.589592
70
0
0
VERTEX
8
Layer 1
10
215.412017
20
169.521698
70
0
0
VERTEX
8
Layer 1
10
215.642578
20
170.663372
70
0
0
VERTEX
8
Layer 1
10
215.412017
20
171.805225
70
0
0
VERTEX
8
Layer 1
10
214.783279
20
172.737727
70
0
0
VERTEX
8
Layer 1
10
213.850775
20
173.366465
70
0
0
VERTEX
8
Layer 1
10
212.708922
20
173.597025
70
0
0
VERTEX
8
Layer 1
10
212.708922
20
173.597025
70
0
0
SEQEND
8
Layer 1
0
POLYLINE
8
Layer 1
62
7
70
0
10
0.000000
20
0.000000
66
1
0
VERTEX
8
Layer 1
10
200.195880
20
175.198559
70
0
0
VERTEX
8
Layer 1
10
225.156998
20
175.198559
70
0
0
SEQEND
8
Layer 1
0
POLYLINE
8
Layer 1
62
7
70
0
10
0.000000
20
0.000000
66
1
0
VERTEX
8
Layer 1
10
212.708922
20
123.526025
70
0
0
VERTEX
8
Layer 1
10
211.567069
20
123.295465
70
0
0
VERTEX
8
Layer 1
10
210.634567
20
122.666727
70
0
0
VERTEX
8
Layer 1
10
210.005829
20
121.734225
70
0
0
VERTEX
8
Layer 1
10
209.775269
20
120.592372
70
0
0
VERTEX
8
Layer 1
10
210.005829
20
119.450698
70
0
0
VERTEX
8
Layer 1
10
210.634567
20
118.518592
70
0
0
VERTEX
8
Layer 1
10
211.567069
20
117.890250
70
0
0
VERTEX
8
Layer 1
10
212.708922
20
117.659870
70
0
0
VERTEX
8
Layer 1
10
213.850775
20
117.890250
70
0
0
VERTEX
8
Layer 1
10
214.783279
20
118.518592
70
0
0
VERTEX
8
Layer 1
10
215.412017
20
119.450698
70
0
0
VERTEX
8
Layer 1
10
215.642578
20
120.592372
70
0
0
VERTEX
8
Layer 1
10
215.412017
20
121.734225
70
0
0
VERTEX
8
Layer 1
10
214.783279
20
122.666727
70
0
0
VERTEX
8
Layer 1
10
213.850775
20
123.295465
70
0
0
VERTEX
8
Layer 1
10
212.708922
20
123.526025
70
0
0
VERTEX
8
Layer 1
10
212.708922
20
123.526025
70
0
0
SEQEND
8
Layer 1
0
POLYLINE
8
Layer 1
62
7
70
0
10
0.000000
20
0.000000
66
1
0
VERTEX
8
Layer 1
10
200.195880
20
125.127559
70
0
0
VERTEX
8
Layer 1
10
225.156998
20
125.127559
70
0
0
SEQEND
8
Layer 1
0
POLYLINE
8
Layer 1
62
7
70
0
10
0.000000
20
0.000000
66
1
0
VERTEX
8
Layer 1
10
212.708922
20
73.454025
70
0
0
VERTEX
8
Layer 1
10
211.567069
20
73.223465
70
0
0
VERTEX
8
Layer 1
10
210.634567
20
72.594727
70
0
0
VERTEX
8
Layer 1
10
210.005829
20
71.662225
70
0
0
VERTEX
8
Layer 1
10
209.775269
20
70.520372
70
0
0
VERTEX
8
Layer 1
10
210.005829
20
69.378698
70
0
0
VERTEX
8
Layer 1
10
210.634567
20
68.446592
70
0
0
VERTEX
8
Layer 1
10
211.567069
20
67.818250
70
0
0
VERTEX
8
Layer 1
10
212.708922
20
67.587870
70
0
0
VERTEX
8
Layer 1
10
213.850775
20
67.818250
70
0
0
VERTEX
8
Layer 1
10
214.783279
20
68.446592
70
0
0
VERTEX
8
Layer 1
10
215.412017
20
69.378698
70
0
0
VERTEX
8
Layer 1
10
215.642578
20
70.520372
70
0
0
VERTEX
8
Layer 1
10
215.412017
20
71.662225
70
0
0
VERTEX
8
Layer 1
10
214.783279
20
72.594727
70
0
0
VERTEX
8
Layer 1
10
213.850775
20
73.223465
70
0
0
VERTEX
8
Layer 1
10
212.708922
20
73.454025
70
0
0
VERTEX
8
Layer 1
10
212.708922
20
73.454025
70
0
0
SEQEND
8
Layer 1
0
POLYLINE
8
Layer 1
62
7
70
0
10
0.000000
20
0.000000
66
1
0
VERTEX
8
Layer 1
10
200.195880
20
75.056559
70
0
0
VERTEX
8
Layer 1
10
225.156998
20
75.056559
70
0
0
SEQEND
8
Layer 1
0
POLYLINE
8
Layer 1
62
7
70
0
10
0.000000
20
0.000000
66
1
0
VERTEX
8
Layer 1
10
212.708922
20
23.383325
70
0
0
VERTEX
8
Layer 1
10
211.567069
20
23.152765
70
0
0
VERTEX
8
Layer 1
10
210.634567
20
22.524027
70
0
0
VERTEX
8
Layer 1
10
210.005829
20
21.591525
70
0
0
VERTEX
8
Layer 1
10
209.775269
20
20.449672
70
0
0
VERTEX
8
Layer 1
10
210.005829
20
19.307998
70
0
0
VERTEX
8
Layer 1
10
210.634567
20
18.375892
70
0
0
VERTEX
8
Layer 1
10
211.567069
20
17.747550
70
0
0
VERTEX
8
Layer 1
10
212.708922
20
17.517170
70
0
0
VERTEX
8
Layer 1
10
213.850775
20
17.747550
70
0
0
VERTEX
8
Layer 1
10
214.783279
20
18.375892
70
0
0
VERTEX
8
Layer 1
10
215.412017
20
19.307998
70
0
0
VERTEX
8
Layer 1
10
215.642578
20
20.449672
70
0
0
VERTEX
8
Layer 1
10
215.412017
20
21.591525
70
0
0
VERTEX
8
Layer 1
10
214.783279
20
22.524027
70
0
0
VERTEX
8
Layer 1
10
213.850775
20
23.152765
70
0
0
VERTEX
8
Layer 1
10
212.708922
20
23.383325
70
0
0
VERTEX
8
Layer 1
10
212.708922
20
23.383325
70
0
0
SEQEND
8
Layer 1
0
POLYLINE
8
Layer 1
62
7
70
0
10
0.000000
20
0.000000
66
1
0
VERTEX
8
Layer 1
10
200.195880
20
24.985459
70
0
0
VERTEX
8
Layer 1
10
225.156998
20
24.985459
70
0
0
SEQEND
8
Layer 1
0
POLYLINE
8
Layer 1
62
7
70
0
10
0.000000
20
0.000000
66
1
0
VERTEX
8
Layer 1
10
287.777922
20
273.638025
70
0
0
VERTEX
8
Layer 1
10
286.636069
20
273.407465
70
0
0
VERTEX
8
Layer 1
10
285.703567
20
272.778727
70
0
0
VERTEX
8
Layer 1
10
285.074829
20
271.846225
70
0
0
VERTEX
8
Layer 1
10
284.844269
20
270.704372
70
0
0
VERTEX
8
Layer 1
10
285.074829
20
269.562698
70
0
0
VERTEX
8
Layer 1
10
285.703567
20
268.630592
70
0
0
VERTEX
8
Layer 1
10
286.636069
20
268.002250
70
0
0
VERTEX
8
Layer 1
10
287.777922
20
267.771870
70
0
0
VERTEX
8
Layer 1
10
288.919775
20
268.002250
70
0
0
VERTEX
8
Layer 1
10
289.852279
20
268.630592
70
0
0
VERTEX
8
Layer 1
10
290.481017
20
269.562698
70
0
0
VERTEX
8
Layer 1
10
290.711578
20
270.704372
70
0
0
VERTEX
8
Layer 1
10
290.481017
20
271.846225
70
0
0
VERTEX
8
Layer 1
10
289.852279
20
272.778727
70
0
0
VERTEX
8
Layer 1
10
288.919775
20
273.407465
70
0
0
VERTEX
8
Layer 1
10
287.777922
20
273.638025
70
0
0
VERTEX
8
Layer 1
10
287.777922
20
273.638025
70
0
0
SEQEND
8
Layer 1
0
POLYLINE
8
Layer 1
62
7
70
0
10
0.000000
20
0.000000
66
1
0
VERTEX
8
Layer 1
10
275.265880
20
275.240559
70
0
0
VERTEX
8
Layer 1
10
300.226998
20
275.240559
70
0
0
SEQEND
8
Layer 1
0
POLYLINE
8
Layer 1
62
7
70
0
10
0.000000
20
0.000000
66
1
0
VERTEX
8
Layer 1
10
312.782350
20
300.216296
70
0
0
VERTEX
8
Layer 1
10
337.781776
20
300.216296
70
0
0
VERTEX
8
Layer 1
10
350.281491
20
275.216866
70
0
0
VERTEX
8
Layer 1
10
337.781776
20
250.217440
70
0
0
VERTEX
8
Layer 1
10
312.782350
20
250.217440
70
0
0
VERTEX
8
Layer 1
10
300.282635
20
275.216866
70
0
0
VERTEX
8
Layer 1
10
312.782350
20
300.216296
70
0
0
SEQEND
8
Layer 1
0
POLYLINE
8
Layer 1
62
7
70
0
10
0.000000
20
0.000000
66
1
0
VERTEX
8
Layer 1
10
325.280922
20
298.625025
70
0
0
VERTEX
8
Layer 1
10
324.139069
20
298.394465
70
0
0
VERTEX
8
Layer 1
10
323.206567
20
297.765727
70
0
0
VERTEX
8
Layer 1
10
322.577829
20
296.833225
70
0
0
VERTEX
8
Layer 1
10
322.347269
20
295.691372
70
0
0
VERTEX
8
Layer 1
10
322.577829
20
294.549698
70
0
0
VERTEX
8
Layer 1
10
323.206567
20
293.617592
70
0
0
VERTEX
8
Layer 1
10
324.139069
20
292.989250
70
0
0
VERTEX
8
Layer 1
10
325.280922
20
292.758870
70
0
0
VERTEX
8
Layer 1
10
326.422775
20
292.989250
70
0
0
VERTEX
8
Layer 1
10
327.355279
20
293.617592
70
0
0
VERTEX
8
Layer 1
10
327.984017
20
294.549698
70
0
0
VERTEX
8
Layer 1
10
328.214578
20
295.691372
70
0
0
VERTEX
8
Layer 1
10
327.984017
20
296.833225
70
0
0
VERTEX
8
Layer 1
10
327.355279
20
297.765727
70
0
0
VERTEX
8
Layer 1
10
326.422775
20
298.394465
70
0
0
VERTEX
8
Layer 1
10
325.280922
20
298.625025
70
0
0
VERTEX
8
Layer 1
10
325.280922
20
298.625025
70
0
0
SEQEND
8
Layer 1
0
POLYLINE
8
Layer 1
62
7
70
0
10
0.000000
20
0.000000
66
1
0
VERTEX
8
Layer 1
10
337.774141
20
250.239726
70
0
0
VERTEX
8
Layer 1
10
350.273856
20
225.240299
70
0
0
VERTEX
8
Layer 1
10
337.774141
20
200.240870
70
0
0
VERTEX
8
Layer 1
10
312.774714
20
200.240870
70
0
0
VERTEX
8
Layer 1
10
300.275000
20
225.240299
70
0
0
VERTEX
8
Layer 1
10
312.774714
20
250.239726
70
0
0
SEQEND
8
Layer 1
0
POLYLINE
8
Layer 1
62
7
70
0
10
0.000000
20
0.000000
66
1
0
VERTEX
8
Layer 1
10
325.273302
20
248.599636
70
0
0
VERTEX
8
Layer 1
10
324.131451
20
248.369076
70
0
0
VERTEX
8
Layer 1
10
323.198950
20
247.740339
70
0
0
VERTEX
8
Layer 1
10
322.570213
20
246.807839
70
0
0
VERTEX
8
Layer 1
10
322.339653
20
245.665987
70
0
0
VERTEX
8
Layer 1
10
322.570213
20
244.524315
70
0
0
VERTEX
8
Layer 1
10
323.198950
20
243.592210
70
0
0
VERTEX
8
Layer 1
10
324.131451
20
242.963870
70
0
0
VERTEX
8
Layer 1
10
325.273302
20
242.733490
70
0
0
VERTEX
8
Layer 1
10
326.415154
20
242.963870
70
0
0
VERTEX
8
Layer 1
10
327.347655
20
243.592210
70
0
0
VERTEX
8
Layer 1
10
327.976392
20
244.524315
70
0
0
VERTEX
8
Layer 1
10
328.206951
20
245.665987
70
0
0
VERTEX
8
Layer 1
10
327.976392
20
246.807839
70
0
0
VERTEX
8
Layer 1
10
327.347655
20
247.740339
70
0
0
VERTEX
8
Layer 1
10
326.415154
20
248.369076
70
0
0
VERTEX
8
Layer 1
10
325.273302
20
248.599636
70
0
0
VERTEX
8
Layer 1
10
325.273302
20
248.599636
70
0
0
SEQEND
8
Layer 1
0
POLYLINE
8
Layer 1
62
7
70
0
10
0.000000
20
0.000000
66
1
0
VERTEX
8
Layer 1
10
337.774141
20
200.262726
70
0
0
VERTEX
8
Layer 1
10
350.273856
20
175.263299
70
0
0
VERTEX
8
Layer 1
10
337.774141
20
150.263870
70
0
0
VERTEX
8
Layer 1
10
312.774714
20
150.263870
70
0
0
VERTEX
8
Layer 1
10
300.275000
20
175.263299
70
0
0
VERTEX
8
Layer 1
10
312.774714
20
200.262726
70
0
0
SEQEND
8
Layer 1
0
POLYLINE
8
Layer 1
62
7
70
0
10
0.000000
20
0.000000
66
1
0
VERTEX
8
Layer 1
10
325.273302
20
198.622636
70
0
0
VERTEX
8
Layer 1
10
324.131451
20
198.392076
70
0
0
VERTEX
8
Layer 1
10
323.198950
20
197.763339
70
0
0
VERTEX
8
Layer 1
10
322.570213
20
196.830839
70
0
0
VERTEX
8
Layer 1
10
322.339653
20
195.688987
70
0
0
VERTEX
8
Layer 1
10
322.570213
20
194.547315
70
0
0
VERTEX
8
Layer 1
10
323.198950
20
193.615210
70
0
0
VERTEX
8
Layer 1
10
324.131451
20
192.986870
70
0
0
VERTEX
8
Layer 1
10
325.273302
20
192.756490
70
0
0
VERTEX
8
Layer 1
10
326.415154
20
192.986870
70
0
0
VERTEX
8
Layer 1
10
327.347655
20
193.615210
70
0
0
VERTEX
8
Layer 1
10
327.976392
20
194.547315
70
0
0
VERTEX
8
Layer 1
10
328.206951
20
195.688987
70
0
0
VERTEX
8
Layer 1
10
327.976392
20
196.830839
70
0
0
VERTEX
8
Layer 1
10
327.347655
20
197.763339
70
0
0
VERTEX
8
Layer 1
10
326.415154
20
198.392076
70
0
0
VERTEX
8
Layer 1
10
325.273302
20
198.622636
70
0
0
VERTEX
8
Layer 1
10
325.273302
20
198.622636
70
0
0
SEQEND
8
Layer 1
0
POLYLINE
8
Layer 1
62
7
70
0
10
0.000000
20
0.000000
66
1
0
VERTEX
8
Layer 1
10
337.774141
20
150.190726
70
0
0
VERTEX
8
Layer 1
10
350.273856
20
125.191299
70
0
0
VERTEX
8
Layer 1
10
337.774141
20
100.191870
70
0
0
VERTEX
8
Layer 1
10
312.774714
20
100.191870
70
0
0
VERTEX
8
Layer 1
10
300.275000
20
125.191299
70
0
0
VERTEX
8
Layer 1
10
312.774714
20
150.190726
70
0
0
SEQEND
8
Layer 1
0
POLYLINE
8
Layer 1
62
7
70
0
10
0.000000
20
0.000000
66
1
0
VERTEX
8
Layer 1
10
325.273302
20
148.550636
70
0
0
VERTEX
8
Layer 1
10
324.131451
20
148.320076
70
0
0
VERTEX
8
Layer 1
10
323.198950
20
147.691339
70
0
0
VERTEX
8
Layer 1
10
322.570213
20
146.758839
70
0
0
VERTEX
8
Layer 1
10
322.339653
20
145.616987
70
0
0
VERTEX
8
Layer 1
10
322.570213
20
144.475315
70
0
0
VERTEX
8
Layer 1
10
323.198950
20
143.543210
70
0
0
VERTEX
8
Layer 1
10
324.131451
20
142.914870
70
0
0
VERTEX
8
Layer 1
10
325.273302
20
142.684490
70
0
0
VERTEX
8
Layer 1
10
326.415154
20
142.914870
70
0
0
VERTEX
8
Layer 1
10
327.347655
20
143.543210
70
0
0
VERTEX
8
Layer 1
10
327.976392
20
144.475315
70
0
0
VERTEX
8
Layer 1
10
328.206951
20
145.616987
70
0
0
VERTEX
8
Layer 1
10
327.976392
20
146.758839
70
0
0
VERTEX
8
Layer 1
10
327.347655
20
147.691339
70
0
0
VERTEX
8
Layer 1
10
326.415154
20
148.320076
70
0
0
VERTEX
8
Layer 1
10
325.273302
20
148.550636
70
0
0
VERTEX
8
Layer 1
10
325.273302
20
148.550636
70
0
0
SEQEND
8
Layer 1
0
POLYLINE
8
Layer 1
62
7
70
0
10
0.000000
20
0.000000
66
1
0
VERTEX
8
Layer 1
10
337.774141
20
100.119726
70
0
0
VERTEX
8
Layer 1
10
350.273856
20
75.120299
70
0
0
VERTEX
8
Layer 1
10
337.774141
20
50.120870
70
0
0
VERTEX
8
Layer 1
10
312.774714
20
50.120870
70
0
0
VERTEX
8
Layer 1
10
300.275000
20
75.120299
70
0
0
VERTEX
8
Layer 1
10
312.774714
20
100.119726
70
0
0
SEQEND
8
Layer 1
0
POLYLINE
8
Layer 1
62
7
70
0
10
0.000000
20
0.000000
66
1
0
VERTEX
8
Layer 1
10
325.273302
20
98.479936
70
0
0
VERTEX
8
Layer 1
10
324.131451
20
98.249376
70
0
0
VERTEX
8
Layer 1
10
323.198950
20
97.620639
70
0
0
VERTEX
8
Layer 1
10
322.570213
20
96.688139
70
0
0
VERTEX
8
Layer 1
10
322.339653
20
95.546287
70
0
0
VERTEX
8
Layer 1
10
322.570213
20
94.404615
70
0
0
VERTEX
8
Layer 1
10
323.198950
20
93.472510
70
0
0
VERTEX
8
Layer 1
10
324.131451
20
92.844170
70
0
0
VERTEX
8
Layer 1
10
325.273302
20
92.613790
70
0
0
VERTEX
8
Layer 1
10
326.415154
20
92.844170
70
0
0
VERTEX
8
Layer 1
10
327.347655
20
93.472510
70
0
0
VERTEX
8
Layer 1
10
327.976392
20
94.404615
70
0
0
VERTEX
8
Layer 1
10
328.206951
20
95.546287
70
0
0
VERTEX
8
Layer 1
10
327.976392
20
96.688139
70
0
0
VERTEX
8
Layer 1
10
327.347655
20
97.620639
70
0
0
VERTEX
8
Layer 1
10
326.415154
20
98.249376
70
0
0
VERTEX
8
Layer 1
10
325.273302
20
98.479936
70
0
0
VERTEX
8
Layer 1
10
325.273302
20
98.479936
70
0
0
SEQEND
8
Layer 1
0
POLYLINE
8
Layer 1
62
7
70
0
10
0.000000
20
0.000000
66
1
0
VERTEX
8
Layer 1
10
337.774141
20
50.048826
70
0
0
VERTEX
8
Layer 1
10
350.273856
20
25.049399
70
0
0
VERTEX
8
Layer 1
10
337.774141
20
0.049970
70
0
0
VERTEX
8
Layer 1
10
312.774714
20
0.049970
70
0
0
VERTEX
8
Layer 1
10
300.275000
20
25.049399
70
0
0
VERTEX
8
Layer 1
10
312.774714
20
50.048826
70
0
0
SEQEND
8
Layer 1
0
POLYLINE
8
Layer 1
62
7
70
0
10
0.000000
20
0.000000
66
1
0
VERTEX
8
Layer 1
10
325.273302
20
48.408736
70
0
0
VERTEX
8
Layer 1
10
324.131451
20
48.178176
70
0
0
VERTEX
8
Layer 1
10
323.198950
20
47.549439
70
0
0
VERTEX
8
Layer 1
10
322.570213
20
46.616939
70
0
0
VERTEX
8
Layer 1
10
322.339653
20
45.475087
70
0
0
VERTEX
8
Layer 1
10
322.570213
20
44.333415
70
0
0
VERTEX
8
Layer 1
10
323.198950
20
43.401310
70
0
0
VERTEX
8
Layer 1
10
324.131451
20
42.772970
70
0
0
VERTEX
8
Layer 1
10
325.273302
20
42.542590
70
0
0
VERTEX
8
Layer 1
10
326.415154
20
42.772970
70
0
0
VERTEX
8
Layer 1
10
327.347655
20
43.401310
70
0
0
VERTEX
8
Layer 1
10
327.976392
20
44.333415
70
0
0
VERTEX
8
Layer 1
10
328.206951
20
45.475087
70
0
0
VERTEX
8
Layer 1
10
327.976392
20
46.616939
70
0
0
VERTEX
8
Layer 1
10
327.347655
20
47.549439
70
0
0
VERTEX
8
Layer 1
10
326.415154
20
48.178176
70
0
0
VERTEX
8
Layer 1
10
325.273302
20
48.408736
70
0
0
VERTEX
8
Layer 1
10
325.273302
20
48.408736
70
0
0
SEQEND
8
Layer 1
0
POLYLINE
8
Layer 1
62
7
70
0
10
0.000000
20
0.000000
66
1
0
VERTEX
8
Layer 1
10
287.777922
20
223.574025
70
0
0
VERTEX
8
Layer 1
10
286.636069
20
223.343465
70
0
0
VERTEX
8
Layer 1
10
285.703567
20
222.714727
70
0
0
VERTEX
8
Layer 1
10
285.074829
20
221.782225
70
0
0
VERTEX
8
Layer 1
10
284.844269
20
220.640372
70
0
0
VERTEX
8
Layer 1
10
285.074829
20
219.498698
70
0
0
VERTEX
8
Layer 1
10
285.703567
20
218.566592
70
0
0
VERTEX
8
Layer 1
10
286.636069
20
217.938250
70
0
0
VERTEX
8
Layer 1
10
287.777922
20
217.707870
70
0
0
VERTEX
8
Layer 1
10
288.919775
20
217.938250
70
0
0
VERTEX
8
Layer 1
10
289.852279
20
218.566592
70
0
0
VERTEX
8
Layer 1
10
290.481017
20
219.498698
70
0
0
VERTEX
8
Layer 1
10
290.711578
20
220.640372
70
0
0
VERTEX
8
Layer 1
10
290.481017
20
221.782225
70
0
0
VERTEX
8
Layer 1
10
289.852279
20
222.714727
70
0
0
VERTEX
8
Layer 1
10
288.919775
20
223.343465
70
0
0
VERTEX
8
Layer 1
10
287.777922
20
223.574025
70
0
0
VERTEX
8
Layer 1
10
287.777922
20
223.574025
70
0
0
SEQEND
8
Layer 1
0
POLYLINE
8
Layer 1
62
7
70
0
10
0.000000
20
0.000000
66
1
0
VERTEX
8
Layer 1
10
275.265880
20
225.175559
70
0
0
VERTEX
8
Layer 1
10
300.226998
20
225.175559
70
0
0
SEQEND
8
Layer 1
0
POLYLINE
8
Layer 1
62
7
70
0
10
0.000000
20
0.000000
66
1
0
VERTEX
8
Layer 1
10
287.777922
20
173.597025
70
0
0
VERTEX
8
Layer 1
10
286.636069
20
173.366465
70
0
0
VERTEX
8
Layer 1
10
285.703567
20
172.737727
70
0
0
VERTEX
8
Layer 1
10
285.074829
20
171.805225
70
0
0
VERTEX
8
Layer 1
10
284.844269
20
170.663372
70
0
0
VERTEX
8
Layer 1
10
285.074829
20
169.521698
70
0
0
VERTEX
8
Layer 1
10
285.703567
20
168.589592
70
0
0
VERTEX
8
Layer 1
10
286.636069
20
167.961250
70
0
0
VERTEX
8
Layer 1
10
287.777922
20
167.730870
70
0
0
VERTEX
8
Layer 1
10
288.919775
20
167.961250
70
0
0
VERTEX
8
Layer 1
10
289.852279
20
168.589592
70
0
0
VERTEX
8
Layer 1
10
290.481017
20
169.521698
70
0
0
VERTEX
8
Layer 1
10
290.711578
20
170.663372
70
0
0
VERTEX
8
Layer 1
10
290.481017
20
171.805225
70
0
0
VERTEX
8
Layer 1
10
289.852279
20
172.737727
70
0
0
VERTEX
8
Layer 1
10
288.919775
20
173.366465
70
0
0
VERTEX
8
Layer 1
10
287.777922
20
173.597025
70
0
0
VERTEX
8
Layer 1
10
287.777922
20
173.597025
70
0
0
SEQEND
8
Layer 1
0
POLYLINE
8
Layer 1
62
7
70
0
10
0.000000
20
0.000000
66
1
0
VERTEX
8
Layer 1
10
275.265880
20
175.198559
70
0
0
VERTEX
8
Layer 1
10
300.226998
20
175.198559
70
0
0
SEQEND
8
Layer 1
0
POLYLINE
8
Layer 1
62
7
70
0
10
0.000000
20
0.000000
66
1
0
VERTEX
8
Layer 1
10
287.777922
20
123.526025
70
0
0
VERTEX
8
Layer 1
10
286.636069
20
123.295465
70
0
0
VERTEX
8
Layer 1
10
285.703567
20
122.666727
70
0
0
VERTEX
8
Layer 1
10
285.074829
20
121.734225
70
0
0
VERTEX
8
Layer 1
10
284.844269
20
120.592372
70
0
0
VERTEX
8
Layer 1
10
285.074829
20
119.450698
70
0
0
VERTEX
8
Layer 1
10
285.703567
20
118.518592
70
0
0
VERTEX
8
Layer 1
10
286.636069
20
117.890250
70
0
0
VERTEX
8
Layer 1
10
287.777922
20
117.659870
70
0
0
VERTEX
8
Layer 1
10
288.919775
20
117.890250
70
0
0
VERTEX
8
Layer 1
10
289.852279
20
118.518592
70
0
0
VERTEX
8
Layer 1
10
290.481017
20
119.450698
70
0
0
VERTEX
8
Layer 1
10
290.711578
20
120.592372
70
0
0
VERTEX
8
Layer 1
10
290.481017
20
121.734225
70
0
0
VERTEX
8
Layer 1
10
289.852279
20
122.666727
70
0
0
VERTEX
8
Layer 1
10
288.919775
20
123.295465
70
0
0
VERTEX
8
Layer 1
10
287.777922
20
123.526025
70
0
0
VERTEX
8
Layer 1
10
287.777922
20
123.526025
70
0
0
SEQEND
8
Layer 1
0
POLYLINE
8
Layer 1
62
7
70
0
10
0.000000
20
0.000000
66
1
0
VERTEX
8
Layer 1
10
275.265880
20
125.127559
70
0
0
VERTEX
8
Layer 1
10
300.226998
20
125.127559
70
0
0
SEQEND
8
Layer 1
0
POLYLINE
8
Layer 1
62
7
70
0
10
0.000000
20
0.000000
66
1
0
VERTEX
8
Layer 1
10
287.777922
20
73.454025
70
0
0
VERTEX
8
Layer 1
10
286.636069
20
73.223465
70
0
0
VERTEX
8
Layer 1
10
285.703567
20
72.594727
70
0
0
VERTEX
8
Layer 1
10
285.074829
20
71.662225
70
0
0
VERTEX
8
Layer 1
10
284.844269
20
70.520372
70
0
0
VERTEX
8
Layer 1
10
285.074829
20
69.378698
70
0
0
VERTEX
8
Layer 1
10
285.703567
20
68.446592
70
0
0
VERTEX
8
Layer 1
10
286.636069
20
67.818250
70
0
0
VERTEX
8
Layer 1
10
287.777922
20
67.587870
70
0
0
VERTEX
8
Layer 1
10
288.919775
20
67.818250
70
0
0
VERTEX
8
Layer 1
10
289.852279
20
68.446592
70
0
0
VERTEX
8
Layer 1
10
290.481017
20
69.378698
70
0
0
VERTEX
8
Layer 1
10
290.711578
20
70.520372
70
0
0
VERTEX
8
Layer 1
10
290.481017
20
71.662225
70
0
0
VERTEX
8
Layer 1
10
289.852279
20
72.594727
70
0
0
VERTEX
8
Layer 1
10
288.919775
20
73.223465
70
0
0
VERTEX
8
Layer 1
10
287.777922
20
73.454025
70
0
0
VERTEX
8
Layer 1
10
287.777922
20
73.454025
70
0
0
SEQEND
8
Layer 1
0
POLYLINE
8
Layer 1
62
7
70
0
10
0.000000
20
0.000000
66
1
0
VERTEX
8
Layer 1
10
275.265880
20
75.056559
70
0
0
VERTEX
8
Layer 1
10
300.226998
20
75.056559
70
0
0
SEQEND
8
Layer 1
0
POLYLINE
8
Layer 1
62
7
70
0
10
0.000000
20
0.000000
66
1
0
VERTEX
8
Layer 1
10
287.777922
20
23.383325
70
0
0
VERTEX
8
Layer 1
10
286.636069
20
23.152765
70
0
0
VERTEX
8
Layer 1
10
285.703567
20
22.524027
70
0
0
VERTEX
8
Layer 1
10
285.074829
20
21.591525
70
0
0
VERTEX
8
Layer 1
10
284.844269
20
20.449672
70
0
0
VERTEX
8
Layer 1
10
285.074829
20
19.307998
70
0
0
VERTEX
8
Layer 1
10
285.703567
20
18.375892
70
0
0
VERTEX
8
Layer 1
10
286.636069
20
17.747550
70
0
0
VERTEX
8
Layer 1
10
287.777922
20
17.517170
70
0
0
VERTEX
8
Layer 1
10
288.919775
20
17.747550
70
0
0
VERTEX
8
Layer 1
10
289.852279
20
18.375892
70
0
0
VERTEX
8
Layer 1
10
290.481017
20
19.307998
70
0
0
VERTEX
8
Layer 1
10
290.711578
20
20.449672
70
0
0
VERTEX
8
Layer 1
10
290.481017
20
21.591525
70
0
0
VERTEX
8
Layer 1
10
289.852279
20
22.524027
70
0
0
VERTEX
8
Layer 1
10
288.919775
20
23.152765
70
0
0
VERTEX
8
Layer 1
10
287.777922
20
23.383325
70
0
0
VERTEX
8
Layer 1
10
287.777922
20
23.383325
70
0
0
SEQEND
8
Layer 1
0
POLYLINE
8
Layer 1
62
7
70
0
10
0.000000
20
0.000000
66
1
0
VERTEX
8
Layer 1
10
275.265880
20
24.985459
70
0
0
VERTEX
8
Layer 1
10
300.226998
20
24.985459
70
0
0
SEQEND
8
Layer 1
 0 
ENDSEC
 0 
EOF