<?xml version="1.0" encoding="UTF-8" standalone="no"?>
<!-- Created with Inkscape (http://www.inkscape.org/) -->

<svg
   width="210mm"
   height="297mm"
   viewBox="0 0 210 297"
   version="1.1"
   id="svg1"
   inkscape:version="1.4.2 (ebf0e940d0, 2025-05-08)"
   sodipodi:docname="boccaleone.svg"
   xmlns:inkscape="http://www.inkscape.org/namespaces/inkscape"
   xmlns:sodipodi="http://sodipodi.sourceforge.net/DTD/sodipodi-0.dtd"
   xmlns="http://www.w3.org/2000/svg"
   xmlns:svg="http://www.w3.org/2000/svg">
  <sodipodi:namedview
     id="namedview1"
     pagecolor="#ffffff"
     bordercolor="#000000"
     borderopacity="0.25"
     inkscape:showpageshadow="2"
     inkscape:pageopacity="0.0"
     inkscape:pagecheckerboard="0"
     inkscape:deskcolor="#d1d1d1"
     inkscape:document-units="mm"
     inkscape:zoom="2.932688"
     inkscape:cx="379.68581"
     inkscape:cy="539.94834"
     inkscape:window-width="1870"
     inkscape:window-height="1032"
     inkscape:window-x="40"
     inkscape:window-y="10"
     inkscape:window-maximized="1"
     inkscape:current-layer="layer1" />
  <defs
     id="defs1" />
  <g
     inkscape:label="Livello 1"
     inkscape:groupmode="layer"
     id="layer1">
    <path
       id="path591"
       style="display:inline;fill:#ff0000;stroke:#ff0000;stroke-width:0.116626;stroke-linecap:round;stroke-linejoin:round;stroke-miterlimit:10;-inkscape-stroke:none"
       d="m 111.77006,137.29233 -7.01084,-3.35486 -7.203878,3.35486 7.203878,2.9524 z" />
    <path
       style="display:inline;fill:#ff0000;stroke:#ff0000;stroke-width:0.116626;stroke-linecap:round;stroke-linejoin:round;stroke-miterlimit:10;-inkscape-stroke:none"
       d="m 92.133302,150.9252 c 1.23934,-4.0277 3.170558,-8.2533 4.728606,-12.22244 l 4.668732,2.22613 z"
       id="path592" />
    <path
       style="display:inline;fill:#ff0000;stroke:#ff0000;stroke-width:0.116626;stroke-linecap:round;stroke-linejoin:round;stroke-miterlimit:10;-inkscape-stroke:none"
       d="m 92.238257,152.76045 6.132016,-6.08712 2.929907,5.51775 z"
       id="path593" />
    <path
       style="display:inline;fill:#ff0000;stroke:#ff0000;stroke-width:0.116626;stroke-linecap:round;stroke-linejoin:round;stroke-miterlimit:10;-inkscape-stroke:none"
       d="m 100.08456,144.98398 0.94782,2.18212 2.22451,0.67754 -0.72959,-2.22499 z"
       id="path594" />
    <path
       style="display:inline;fill:#ff0000;stroke:#ff0000;stroke-width:0.116626;stroke-linecap:round;stroke-linejoin:round;stroke-miterlimit:10;-inkscape-stroke:none"
       d="m 117.38692,150.9252 c -1.23934,-4.0277 -3.17056,-8.2533 -4.72861,-12.22244 l -4.66873,2.22613 z"
       id="path595" />
    <path
       style="display:inline;fill:#ff0000;stroke:#ff0000;stroke-width:0.116626;stroke-linecap:round;stroke-linejoin:round;stroke-miterlimit:10;-inkscape-stroke:none"
       d="m 117.28197,152.76045 -6.13202,-6.08712 -2.92991,5.51775 z"
       id="path596" />
    <path
       style="display:inline;fill:#ff0000;stroke:#ff0000;stroke-width:0.116626;stroke-linecap:round;stroke-linejoin:round;stroke-miterlimit:10;-inkscape-stroke:none"
       d="m 109.43566,144.98398 -0.94782,2.18212 -2.22451,0.67754 0.72959,-2.22499 z"
       id="path597" />
    <path
       id="path598"
       style="display:inline;fill:#ff0000;stroke:#ff0000;stroke-width:0.116626;stroke-linecap:round;stroke-linejoin:round;stroke-miterlimit:10;-inkscape-stroke:none"
       d="m 102.80164,150.9094 -0.43678,0.64914 1.43057,0.88202 0.22444,2.01749 -1.74865,0.52045 -0.93157,-1.46289 -8.912388,0.37727 12.327228,9.25917 12.32722,-9.25917 -8.91239,-0.37727 -0.93157,1.46289 -1.74865,-0.52045 0.22474,-2.01749 1.43027,-0.88202 -0.43678,-0.64914 -1.72297,0.77963 h -0.22987 -0.22957 z m 1.95768,4.15064 2.20114,0.59718 0.45642,1.11643 -2.65756,1.98576 -2.65756,-1.98576 0.45612,-1.11643 z"
       sodipodi:nodetypes="cccccccccccccccccccccccccc" />
  </g>
</svg>
